<svg width="25" height="27" viewBox="0 0 25 27" fill="none" xmlns="http://www.w3.org/2000/svg">
    <path d="M8.39821 17.8326L8.39816 17.833C8.37282 17.9818 8.3802 18.1343 8.41981 18.28L8.69968 18.2039L8.41981 18.28C8.45941 18.4256 8.53027 18.5609 8.62746 18.6764C8.72465 18.7919 8.84584 18.8849 8.9826 18.9488C9.11936 19.0127 9.26839 19.046 9.41934 19.0465L9.42052 19.0465C9.58916 19.0463 9.75523 19.005 9.90434 18.9262L14.3273 16.6009L18.7508 18.9265C18.9222 19.0166 19.1154 19.057 19.3085 19.043C19.5016 19.0291 19.687 18.9614 19.8436 18.8475C20.0003 18.7337 20.122 18.5784 20.1949 18.399C20.2679 18.2196 20.2892 18.0235 20.2564 17.8326C20.2564 17.8326 20.2564 17.8326 20.2564 17.8326L19.4115 12.9069L22.9902 9.41861C23.1288 9.28349 23.2269 9.11228 23.2733 8.92433C23.3198 8.73638 23.3127 8.53918 23.2529 8.35504C23.1931 8.17091 23.083 8.00716 22.935 7.88233C22.7871 7.7575 22.6071 7.67656 22.4155 7.64866L22.4154 7.64865L17.4698 6.93L15.2578 2.4485L15.2578 2.44849C15.1721 2.27488 15.0395 2.1287 14.8751 2.0265C14.7107 1.92429 14.5209 1.87013 14.3273 1.87013C14.1337 1.87013 13.944 1.92429 13.7795 2.0265C13.6151 2.12871 13.4825 2.27488 13.3968 2.44849L13.3968 2.4485L11.1849 6.93L6.23952 7.64865C6.23951 7.64865 6.23951 7.64865 6.23951 7.64865C6.0479 7.67649 5.86791 7.75739 5.71989 7.88218C5.57186 8.00698 5.4617 8.17071 5.40187 8.35485C5.34204 8.53899 5.33492 8.73619 5.38132 8.92417C5.42772 9.11214 5.52579 9.28338 5.66443 9.41852C5.66443 9.41853 5.66444 9.41853 5.66444 9.41853L9.24305 12.907L8.39821 17.8326Z" fill="#8BD5F8" stroke="#8BD5F8" stroke-width="0.580061"/>
    <path d="M9.38454 16.6725L9.38448 16.6728C9.35915 16.8216 9.36653 16.9742 9.40613 17.1198L9.68601 17.0437L9.40613 17.1198C9.44573 17.2655 9.5166 17.4008 9.61379 17.5163C9.71098 17.6318 9.83217 17.7247 9.96893 17.7886C10.1057 17.8525 10.2547 17.8858 10.4057 17.8863L10.4068 17.8863C10.5755 17.8861 10.7416 17.8449 10.8907 17.7661L15.3136 15.4407L19.7372 17.7663C19.9085 17.8565 20.1017 17.8968 20.2948 17.8829C20.488 17.8689 20.6733 17.8012 20.83 17.6874C20.9866 17.5736 21.1083 17.4182 21.1812 17.2388C21.2542 17.0595 21.2755 16.8633 21.2427 16.6725C21.2427 16.6725 21.2427 16.6725 21.2427 16.6725L20.3978 11.7468L23.9765 8.25845C24.1151 8.12334 24.2132 7.95212 24.2597 7.76418C24.3061 7.57622 24.299 7.37903 24.2392 7.19489C24.1795 7.01075 24.0694 6.84701 23.9214 6.72218C23.7734 6.59735 23.5934 6.51641 23.4019 6.48851L23.4018 6.4885L18.4561 5.76984L16.2441 1.28834L16.2441 1.28833C16.1584 1.11472 16.0259 0.968548 15.8614 0.866343C15.697 0.764135 15.5073 0.709969 15.3136 0.709969C15.12 0.709969 14.9303 0.764135 14.7659 0.866342C14.6014 0.968549 14.4689 1.11472 14.3832 1.28833L14.3832 1.28834L12.1712 5.76984L7.22584 6.4885C7.22584 6.4885 7.22584 6.4885 7.22584 6.4885C7.03423 6.51634 6.85424 6.59723 6.70622 6.72203C6.55819 6.84682 6.44803 7.01055 6.3882 7.19469C6.32837 7.37883 6.32125 7.57604 6.36765 7.76401C6.41405 7.95198 6.51212 8.12322 6.65076 8.25837C6.65076 8.25837 6.65076 8.25837 6.65077 8.25837L10.2294 11.7468L9.38454 16.6725Z" fill="#3B43ED" stroke="#3B43ED" stroke-width="0.580061"/>
    <path d="M13.6655 12.3932L13.6655 12.3931L13.9003 11.0241L12.9057 10.0545C12.8671 10.0169 12.8399 9.96933 12.827 9.91709C12.8141 9.86484 12.816 9.81003 12.8327 9.75885C12.8493 9.70767 12.8799 9.66216 12.9211 9.62748C12.9622 9.59279 13.0122 9.57031 13.0655 9.56257L14.44 9.36283L15.0548 8.11725L15.0548 8.11725C15.0786 8.069 15.1154 8.02837 15.1611 7.99996C15.2068 7.97155 15.2596 7.9565 15.3134 7.9565C15.3672 7.9565 15.4199 7.97155 15.4656 7.99996C15.5113 8.02837 15.5482 8.06899 15.572 8.11725L15.572 8.11725L16.1868 9.36283L17.5614 9.56257L17.5614 9.56257C17.6147 9.57033 17.6647 9.59282 17.7058 9.62752C17.7469 9.66221 17.7775 9.70772 17.7942 9.7589C17.8108 9.81008 17.8127 9.86489 17.7998 9.91713C17.7869 9.96936 17.7597 10.0169 17.7211 10.0545C17.7211 10.0545 17.7211 10.0545 17.7211 10.0545L16.7265 11.024L16.9613 12.3931C16.9613 12.3931 16.9613 12.3931 16.9613 12.3931C16.9704 12.4461 16.9645 12.5006 16.9442 12.5505C16.9239 12.6004 16.8901 12.6435 16.8466 12.6752C16.8031 12.7068 16.7515 12.7256 16.6979 12.7295C16.6442 12.7334 16.5905 12.7222 16.5429 12.6971L15.3134 12.0507L14.0841 12.697L14.0839 12.6971L14.0464 12.6258C14.0166 12.6415 13.9833 12.6498 13.9495 12.6498L13.6655 12.3932ZM13.6655 12.3932C13.6584 12.4345 13.6605 12.4769 13.6715 12.5174C13.6825 12.5579 13.7022 12.5955 13.7292 12.6276C13.7562 12.6597 13.7899 12.6855 13.8279 12.7033L13.862 12.6303L13.6655 12.3932Z" fill="#8BD5F8" stroke="#8BD5F8" stroke-width="0.161221"/>
    <path d="M4.53417 12.9616L1.04761 17.3731" stroke="#3B43ED" stroke-width="2" stroke-linecap="round"/>
    <path d="M14.6128 20.7164L11.1262 25.128" stroke="#3B43ED" stroke-width="2" stroke-linecap="round"/>
    <path d="M7.17845 19.8707L3.6919 24.2823" stroke="#3B43ED" stroke-width="2" stroke-linecap="round"/>
</svg>
