<svg width="39.1304347826" height="36" viewBox="0 0 25 23" fill="none" xmlns="http://www.w3.org/2000/svg">
    <path d="M24.507 16.5168C24.507 19.576 19.0209 22.056 12.2535 22.056C5.48607 22.056 0 19.576 0 16.5168C0 13.4575 5.48607 10.9775 12.2535 10.9775C19.0209 10.9775 24.507 13.4575 24.507 16.5168Z" fill="#3B43ED"/>
    <path fill-rule="evenodd" clip-rule="evenodd" d="M12.2435 18.1688C18.0107 18.1688 22.6858 13.5154 22.6858 7.77519C22.6858 6.47176 22.4448 5.22438 22.0046 4.07478C22.1091 4.36369 22.1637 4.66129 22.1637 4.96528C22.1637 7.70747 17.7223 9.93046 12.2436 9.93046C6.76481 9.93046 2.3234 7.70747 2.3234 4.96528C2.3234 4.66075 2.37817 4.36263 2.48306 4.07324C2.04253 5.22326 1.80127 6.47118 1.80127 7.77519C1.80127 13.5154 6.47644 18.1688 12.2435 18.1688Z" fill="white"/>
    <ellipse cx="12.2473" cy="4.96518" rx="9.92017" ry="4.96518" fill="#E6E6E7"/>
    <path d="M2.3252 5.05619C2.3252 6.41582 3.43461 7.57845 5.23073 8.47736C6.91198 9.31811 9.19422 9.8602 11.727 9.92468H11.7271L11.7916 9.9261C11.9158 9.92864 12.0403 9.93014 12.1666 9.93059L12.191 9.93066L12.2144 9.9307L12.2474 9.93073L12.267 9.93072C13.4046 9.92973 14.5001 9.83308 15.5174 9.65462C16.5501 9.47525 17.5039 9.21121 18.3485 8.8806C18.6705 8.75561 18.9764 8.62052 19.2641 8.47533L19.2644 8.47517L19.2647 8.47499C19.2692 8.47231 19.2742 8.47003 19.2799 8.46746L19.2801 8.46735C19.2855 8.46491 19.2915 8.46219 19.2971 8.45887L19.3043 8.45455L19.3013 8.44669C18.7434 6.97045 17.313 5.92232 15.635 5.92232C14.262 6.05488 12.8767 5.87436 11.5835 5.39434L8.10777 4.10423C6.62528 3.55396 5.02225 3.41178 3.46605 3.69254C2.91165 3.79256 2.40768 4.11069 2.34557 4.67061C2.33282 4.78552 2.3252 4.91378 2.3252 5.05619Z" fill="#FFBC96"/>
    <path d="M12.2518 9.93056C10.7523 9.93056 9.10701 9.76539 8.05469 9.46728C10.9081 9.85604 13.0997 8.93954 14.7491 6.70571C15.933 5.10235 16.8399 4.36894 18.9321 3.83739C20.3183 3.48519 21.8057 3.58561 22.0486 4.18989L22.0489 4.19067C22.0704 4.24419 22.2281 4.63641 22.1396 5.30781C21.9777 6.53651 20.9092 7.65041 19.2619 8.47425C18.9907 8.6092 18.7054 8.73812 18.4039 8.85696C17.0278 9.40283 15.3542 9.76942 13.5247 9.88625C13.1079 9.91244 12.6829 9.93056 12.2518 9.93056Z" fill="#FF7B31"/>
</svg>
