<svg width="123" height="36" viewBox="0 0 123 36" fill="none" xmlns="http://www.w3.org/2000/svg">
    <path fill-rule="evenodd" clip-rule="evenodd" d="M64.7523 28.8289H70.4628L61.476 15.2354L70.4306 4.84253H64.4289L56.4761 14.2249V4.84253H51.7891V28.8289H56.4761V21.0391L58.2915 18.9297L64.7523 28.8289ZM82.5894 28.8289V27.6755C81.5221 28.4869 79.966 29.2346 77.8352 29.2346C75.162 29.2346 72.8448 28.2456 71.1995 26.5172C69.5585 24.7933 68.6446 22.3971 68.6446 19.6757C68.6446 14.1711 72.3703 10.0544 77.6471 10.0544C79.7821 10.0544 81.3813 10.7979 82.4953 11.6427V10.4602H87.1197V28.8289H82.5894ZM77.9918 24.8787C76.5562 24.8787 75.4198 24.3678 74.6352 23.5165C73.8433 22.6573 73.3317 21.3643 73.3317 19.6757C73.3317 18.0564 73.8398 16.7461 74.6378 15.8547C75.4275 14.9726 76.551 14.4415 77.9292 14.4415C79.2787 14.4415 80.4212 14.9194 81.229 15.7638C82.0377 16.6089 82.5894 17.9047 82.5894 19.6757C82.5894 21.1614 82.1238 22.4729 81.337 23.395C80.5646 24.3001 79.4454 24.8787 77.9918 24.8787ZM90.3096 10.4602V28.8289H94.934V19.3949C94.934 18.0295 95.3016 16.9389 95.8955 16.212C96.4686 15.5107 97.3156 15.0657 98.4974 15.0657H100.919V10.4602H98.466C97.0311 10.4602 95.8265 10.9499 94.9026 11.6551V10.4602H90.3096ZM114.936 28.8289V27.6755C113.868 28.4869 112.312 29.2346 110.181 29.2346C107.508 29.2346 105.191 28.2456 103.546 26.5172C101.905 24.7933 100.991 22.3971 100.991 19.6757C100.991 14.1711 104.717 10.0544 109.993 10.0544C112.128 10.0544 113.728 10.7979 114.842 11.6427V10.4602H119.466V28.8289H114.936ZM110.338 24.8787C108.903 24.8787 107.766 24.3678 106.982 23.5165C106.19 22.6573 105.678 21.3643 105.678 19.6757C105.678 18.0564 106.186 16.7461 106.984 15.8547C107.774 14.9726 108.897 14.4415 110.275 14.4415C111.625 14.4415 112.767 14.9194 113.575 15.7638C114.384 16.6089 114.936 17.9047 114.936 19.6757C114.936 21.1614 114.47 22.4729 113.683 23.395C112.911 24.3001 111.792 24.8787 110.338 24.8787Z" fill="#1C1D21"/>
    <path d="M35.8852 24.9982C35.8852 29.4596 27.852 33.0763 17.9426 33.0763C8.03318 33.0763 0 29.4596 0 24.9982C0 20.5368 8.03318 16.9202 17.9426 16.9202C27.852 16.9202 35.8852 20.5368 35.8852 24.9982Z" fill="#3B43ED"/>
    <path fill-rule="evenodd" clip-rule="evenodd" d="M17.9272 27.4072C26.3719 27.4072 33.2177 20.6209 33.2177 12.2497C33.2177 10.3489 32.8647 8.52981 32.2202 6.85332C32.3733 7.27464 32.4532 7.70865 32.4532 8.15196C32.4532 12.151 25.9497 15.3929 17.9272 15.3929C9.90476 15.3929 3.40127 12.151 3.40127 8.15196C3.40127 7.70786 3.48147 7.2731 3.63505 6.85107C2.99 8.52819 2.63672 10.3481 2.63672 12.2497C2.63672 20.6209 9.4825 27.4072 17.9272 27.4072Z" fill="white"/>
    <ellipse cx="17.9322" cy="8.15178" rx="14.526" ry="7.24089" fill="#E6E6E7"/>
    <path d="M3.40625 8.28401C3.40625 10.2668 5.03074 11.9623 7.66078 13.2732C10.1226 14.4993 13.4645 15.2899 17.1732 15.3839H17.1733L17.2678 15.386C17.4497 15.3897 17.632 15.3919 17.8169 15.3925L17.8526 15.3926L17.8869 15.3927L17.9352 15.3927L17.9638 15.3927C19.6297 15.3913 21.2337 15.2503 22.7234 14.9901C24.2355 14.7285 25.6322 14.3434 26.8689 13.8613C27.3404 13.679 27.7883 13.482 28.2096 13.2703L28.2101 13.27L28.2105 13.2698C28.2171 13.2659 28.2244 13.2625 28.2327 13.2588L28.2331 13.2586C28.241 13.2551 28.2498 13.2511 28.2579 13.2463L28.2685 13.24L28.2642 13.2285C27.4472 11.0756 25.3527 9.54712 22.8957 9.54712C20.8849 9.74046 18.8564 9.47708 16.9617 8.77666L11.873 6.89553C9.7023 6.09307 7.35647 5.88574 5.07865 6.29502C4.26555 6.44111 3.52564 6.90693 3.43538 7.7281C3.41714 7.89404 3.40625 8.07896 3.40625 8.28401Z" fill="#FFBC96"/>
    <path d="M17.9388 15.3928C15.743 15.3928 13.3339 15.1519 11.793 14.7172C15.9712 15.2841 19.1803 13.9476 21.5955 10.6899C23.329 8.35165 24.657 7.2821 27.7206 6.50691C29.7504 5.9933 31.9284 6.13973 32.284 7.02098L32.2845 7.02212C32.316 7.10017 32.5469 7.67216 32.4173 8.65128C32.1803 10.4431 30.6157 12.0676 28.2036 13.269C27.8065 13.4658 27.3887 13.6538 26.9471 13.8271C24.9321 14.6232 22.4815 15.1578 19.8027 15.3282C19.1923 15.3664 18.57 15.3928 17.9388 15.3928Z" fill="#FF7B31"/>
</svg>
