<svg width="28" height="18" viewBox="0 0 28 18" fill="none" xmlns="http://www.w3.org/2000/svg">
    <circle cx="4.86036" cy="5.57178" r="4.3169" fill="#FFB526"/>
    <circle cx="22.5039" cy="5.57178" r="4.3169" fill="#FFB526"/>
    <circle cx="4.86083" cy="5.57152" r="1.74633" fill="#FFB526"/>
    <path d="M21.6965 16.6668L21.6965 16.6667L21.9345 12.599C21.958 12.199 21.6544 11.8549 21.2545 11.828L21.2544 11.8279L17.091 11.5498L17.0908 11.5498C17.0004 11.5439 16.9127 11.5547 16.8307 11.5795L21.6965 16.6668ZM21.6965 16.6668C21.6728 17.0694 21.3275 17.3766 20.9249 17.3529L20.9248 17.3529C20.5224 17.329 20.2153 16.984 20.2387 16.5814L20.2387 16.5814L20.3938 13.9305L21.6965 16.6668Z" fill="#FFB526" stroke="#FFB526" stroke-width="0.266684"/>
    <path d="M4.27734 6.31055C4.27734 11.5637 8.53589 15.8223 13.7891 15.8223C16.1649 15.8223 18.3373 14.9512 20.0043 13.511" stroke="#FFB526" stroke-width="1.77789" stroke-linecap="round"/>
    <path d="M22.052 15.6004L22.052 15.6003L22.29 11.5326C22.3135 11.1326 22.0099 10.7885 21.61 10.7615L21.6099 10.7615L17.4465 10.4834L17.4463 10.4834C17.3558 10.4775 17.2682 10.4883 17.1862 10.5131L22.052 15.6004ZM22.052 15.6004C22.0282 16.003 21.6829 16.3102 21.2804 16.2865L21.2803 16.2865C20.8778 16.2626 20.5707 15.9176 20.5942 15.515L20.5942 15.5149L20.7493 12.864L22.052 15.6004Z" fill="#FF7B31" stroke="#FF7B31" stroke-width="0.266684"/>
    <path d="M4.63281 5.24414C4.63281 10.4973 8.89136 14.7559 14.1445 14.7559C16.5204 14.7559 18.6928 13.8848 20.3598 12.4446" stroke="#FF7B31" stroke-width="1.77789" stroke-linecap="round"/>
    <circle cx="5.45362" cy="4.3169" r="4.3169" fill="#FF7B31"/>
    <circle cx="23.073" cy="4.3169" r="4.3169" fill="#FF7B31"/>
    <circle cx="5.52179" cy="4.3775" r="1.77789" fill="#FFB526"/>
    <circle cx="23.1229" cy="4.3775" r="1.77789" fill="#FFB526"/>
</svg>
