<svg width="23" height="24" viewBox="0 0 23 24" fill="none" xmlns="http://www.w3.org/2000/svg">
    <path d="M1.02195 14.5998H2.23724C2.65154 14.5998 3.03823 14.876 3.17633 15.2627C3.25919 15.4836 3.34205 15.7322 3.45253 15.9532C3.64587 16.3399 3.56301 16.7818 3.25919 17.0856L2.40296 17.9418C2.01628 18.3285 2.01628 18.9638 2.40296 19.3505L4.11542 21.0629C4.5021 21.4496 5.13736 21.4496 5.52405 21.0629L6.38028 20.2067C6.6841 19.9029 7.12602 19.8476 7.5127 20.0134C7.73367 20.1238 7.95463 20.2067 8.20321 20.2896C8.58989 20.4277 8.8661 20.8143 8.8661 21.2286V22.4439C8.8661 22.9963 9.30802 23.4383 9.86042 23.4383H12.291C12.8434 23.4383 13.2853 22.9963 13.2853 22.4439V21.2286C13.2853 20.8143 13.5615 20.4277 13.9482 20.2896C14.1692 20.2067 14.4178 20.1238 14.6387 20.0134C15.0254 19.82 15.4673 19.9029 15.7712 20.2067L16.6274 21.0629C17.0141 21.4496 17.6493 21.4496 18.036 21.0629L19.7485 19.3505C20.1352 18.9638 20.1352 18.3285 19.7485 17.9418L18.8922 17.0856C18.5884 16.7818 18.5332 16.3399 18.6989 15.9532C18.8094 15.7322 18.8922 15.5113 18.9751 15.2627C19.1132 14.876 19.4999 14.5998 19.9142 14.5998H21.1295C21.6819 14.5998 22.1238 14.1579 22.1238 13.6055V11.1749C22.1238 10.6225 21.6819 10.1805 21.1295 10.1805H19.9142C19.4999 10.1805 19.1132 9.90435 18.9751 9.51766C18.8922 9.2967 18.8094 9.04812 18.6989 8.82716C18.5056 8.44047 18.5884 7.99855 18.8922 7.69473L19.7485 6.8385C20.1352 6.45182 20.1352 5.81655 19.7485 5.42987L18.036 3.71741C17.6493 3.33073 17.0141 3.33073 16.6274 3.71741L15.7712 4.57364C15.4673 4.87746 15.0254 4.9327 14.6387 4.76698C14.4178 4.6565 14.1968 4.57364 13.9482 4.49078C13.5615 4.32506 13.2853 3.966 13.2853 3.52407V2.30878C13.2853 1.75638 12.8434 1.31445 12.291 1.31445H9.86042C9.30802 1.31445 8.8661 1.75638 8.8661 2.30878V3.52407C8.8661 3.93838 8.58989 4.32506 8.20321 4.46316C7.98225 4.54602 7.73367 4.62888 7.5127 4.73936C7.12602 4.9327 6.6841 4.84984 6.38028 4.54602L5.52405 3.68979C5.13736 3.30311 4.5021 3.30311 4.11542 3.68979L2.40296 5.40225C2.01628 5.78893 2.01628 6.4242 2.40296 6.81088L3.25919 7.66711C3.56301 7.97093 3.61825 8.41285 3.45253 8.79954C3.34205 9.0205 3.25919 9.24146 3.17633 9.49004C3.01061 9.90435 2.65154 10.1805 2.20962 10.1805H0.994329C0.441924 10.1805 0 10.6225 0 11.1749V13.6055C0.0276202 14.1579 0.469544 14.5998 1.02195 14.5998ZM11.0757 8.79954C13.0644 8.79954 14.6663 10.4015 14.6663 12.3902C14.6663 14.3788 13.0644 15.9808 11.0757 15.9808C9.08706 15.9808 7.48508 14.3788 7.48508 12.3902C7.48508 10.4015 9.08706 8.79954 11.0757 8.79954Z" fill="#A2FF81"/>
    <path d="M1.89793 13.2853H3.11322C3.52752 13.2853 3.9142 13.5615 4.0523 13.9482C4.13516 14.1692 4.21803 14.4178 4.32851 14.6387C4.52185 15.0254 4.43899 15.4673 4.13516 15.7712L3.27894 16.6274C2.89225 17.0141 2.89225 17.6493 3.27894 18.036L4.99139 19.7485C5.37808 20.1352 6.01334 20.1352 6.40002 19.7485L7.25625 18.8922C7.56007 18.5884 8.002 18.5332 8.38868 18.6989C8.60964 18.8094 8.83061 18.8922 9.07919 18.9751C9.46587 19.1132 9.74207 19.4999 9.74207 19.9142V21.1295C9.74207 21.6819 10.184 22.1238 10.7364 22.1238H13.167C13.7194 22.1238 14.1613 21.6819 14.1613 21.1295V19.9142C14.1613 19.4999 14.4375 19.1132 14.8242 18.9751C15.0452 18.8922 15.2937 18.8094 15.5147 18.6989C15.9014 18.5056 16.3433 18.5884 16.6471 18.8922L17.5034 19.7485C17.89 20.1352 18.5253 20.1352 18.912 19.7485L20.6244 18.036C21.0111 17.6493 21.0111 17.0141 20.6244 16.6274L19.7682 15.7712C19.4644 15.4673 19.4092 15.0254 19.5749 14.6387C19.6854 14.4178 19.7682 14.1968 19.8511 13.9482C19.9892 13.5615 20.3759 13.2853 20.7902 13.2853H22.0055C22.5579 13.2853 22.9998 12.8434 22.9998 12.291V9.86042C22.9998 9.30802 22.5579 8.8661 22.0055 8.8661H20.7902C20.3759 8.8661 19.9892 8.58989 19.8511 8.20321C19.7682 7.98225 19.6854 7.73367 19.5749 7.5127C19.3815 7.12602 19.4644 6.6841 19.7682 6.38028L20.6244 5.52405C21.0111 5.13736 21.0111 4.5021 20.6244 4.11542L18.912 2.40296C18.5253 2.01628 17.89 2.01628 17.5034 2.40296L16.6471 3.25919C16.3433 3.56301 15.9014 3.61825 15.5147 3.45253C15.2937 3.34205 15.0728 3.25919 14.8242 3.17633C14.4375 3.01061 14.1613 2.65154 14.1613 2.20962V0.994329C14.1613 0.441924 13.7194 0 13.167 0H10.7364C10.184 0 9.74207 0.441924 9.74207 0.994329V2.20962C9.74207 2.62392 9.46587 3.01061 9.07919 3.14871C8.85822 3.23157 8.60964 3.31443 8.38868 3.42491C8.002 3.61825 7.56007 3.53539 7.25625 3.23157L6.40002 2.37534C6.01334 1.98866 5.37808 1.98866 4.99139 2.37534L3.27894 4.0878C2.89225 4.47448 2.89225 5.10974 3.27894 5.49643L4.13516 6.35266C4.43899 6.65648 4.49423 7.0984 4.32851 7.48508C4.21803 7.70605 4.13516 7.92701 4.0523 8.17559C3.88658 8.58989 3.52752 8.8661 3.0856 8.8661H1.87031C1.3179 8.8661 0.875977 9.30802 0.875977 9.86042V12.291C0.903597 12.8434 1.34552 13.2853 1.89793 13.2853ZM11.9517 7.48508C13.9403 7.48508 15.5423 9.08706 15.5423 11.0757C15.5423 13.0644 13.9403 14.6663 11.9517 14.6663C9.96303 14.6663 8.36106 13.0644 8.36106 11.0757C8.36106 9.08706 9.96303 7.48508 11.9517 7.48508Z" fill="#01977C"/>
    <circle cx="11.9073" cy="11.0306" r="3.5833" fill="#A2FF81"/>
</svg>
