<svg width="36" height="25" viewBox="0 0 36 25" fill="none" xmlns="http://www.w3.org/2000/svg">
    <mask id="mask0_5940_39926" style="mask-type:alpha" maskUnits="userSpaceOnUse" x="0" y="0" width="36" height="25">
        <path d="M0 0H16C27.0457 0 36 8.95431 36 20V25H0V0Z" fill="#F7F8FB"/>
    </mask>
    <g mask="url(#mask0_5940_39926)">
        <path d="M3.75932 3.3969C-4.16348 -3.34954 -4.72781 -15.3904 2.52926 -22.8483V-22.8483C7.07752 -27.5224 13.986 -29.0116 20.056 -26.6264L41.3721 -18.2503L34.8926 -1.76078C30.3241 9.86549 15.6683 13.5376 6.15755 5.43904L3.75932 3.3969Z" fill="#3B43ED"/>
        <path d="M21.8315 -3.63491C19.0307 7.06125 24.1051 18.2571 33.9948 23.2014L39.7521 26.0798C48.8839 30.6452 59.9756 27.9893 66.0493 19.7831V19.7831L44.8545 -16.9273L21.8315 -3.63491V-3.63491Z" fill="#8BD5F8"/>
    </g>
</svg>
