<svg xmlns="http://www.w3.org/2000/svg" width="26" height="25" stroke="#000" stroke-linecap="round" stroke-linejoin="round" fill="#fff" fill-rule="evenodd">
    <style><![CDATA[.B{stroke:none}.C{fill-rule:nonzero}.D{stroke-linejoin:miter}.E{stroke-linecap:butt}.F{stroke-width:1.4545}]]></style>
    <defs>
        <clipPath id="A"><path d="M16.8023 6.9545H8.6977v3.2841h4.6651c-.4349 2.0864-2.2535 3.2841-4.6651 3.2841-2.8465 0-5.1396-2.2409-5.1396-5.0227s2.2931-5.0227 5.1396-5.0227A5.1 5.1 0 0 1 11.9 4.5977l2.5302-2.4727C12.8884.8114 10.9116 0 8.6977 0 3.8744 0 0 3.7864 0 8.5S3.8744 17 8.6977 17C13.0465 17 17 13.9091 17 8.5c0-.5023-.0791-1.0432-.1977-1.5455z" fill="#000" transform="translate(.7907 -3.4773)" class="B C D E F"/></clipPath>
        <clipPath id="B"><path d="M16.8023 6.9545H8.6977v3.2841h4.6651c-.4349 2.0864-2.2535 3.2841-4.6651 3.2841-2.8465 0-5.1396-2.2409-5.1396-5.0227s2.2931-5.0227 5.1396-5.0227A5.1 5.1 0 0 1 11.9 4.5977l2.5302-2.4727C12.8884.8114 10.9116 0 8.6977 0 3.8744 0 0 3.7864 0 8.5S3.8744 17 8.6977 17C13.0465 17 17 13.9091 17 8.5c0-.5023-.0791-1.0432-.1977-1.5455z" fill="#000" transform="translate(.7907 .7727)" class="B C D E F"/></clipPath>
        <clipPath id="C"><path d="M16.8023 6.9545H8.6977v3.2841h4.6651c-.4349 2.0864-2.2535 3.2841-4.6651 3.2841-2.8465 0-5.1396-2.2409-5.1396-5.0227s2.2931-5.0227 5.1396-5.0227A5.1 5.1 0 0 1 11.9 4.5977l2.5302-2.4727C12.8884.8114 10.9116 0 8.6977 0 3.8744 0 0 3.7864 0 8.5S3.8744 17 8.6977 17C13.0465 17 17 13.9091 17 8.5c0-.5023-.0791-1.0432-.1977-1.5455z" fill="#000" transform="translate(.7907 .7727)" class="B C D E F"/></clipPath>
        <clipPath id="D"><path d="M16.8023 6.9545H8.6977v3.2841h4.6651c-.4349 2.0864-2.2535 3.2841-4.6651 3.2841-2.8465 0-5.1396-2.2409-5.1396-5.0227s2.2931-5.0227 5.1396-5.0227A5.1 5.1 0 0 1 11.9 4.5977l2.5302-2.4727C12.8884.8114 10.9116 0 8.6977 0 3.8744 0 0 3.7864 0 8.5S3.8744 17 8.6977 17C13.0465 17 17 13.9091 17 8.5c0-.5023-.0791-1.0432-.1977-1.5455z" fill="#000" transform="translate(-4.3488 -3.4773)" class="B C D E F"/></clipPath>
    </defs>
    <g transform="translate(3.5 3.5)" class="B C">
        <path d="M0 10.0455V0l6.7209 5.0223z" fill="#fbbc05" transform="translate(-.7907 3.4773)" clip-path="url(#A)"/>
        <g transform="translate(-.7907 -.7727)">
            <path d="M0 4.25l6.7206 5.0227L9.4882 6.916l9.4885-1.5073V0H0z" fill="#ea4335" clip-path="url(#B)"/>
            <path d="M0 14.2956l11.8605-8.889 3.123.3876L18.9767 0v18.5455H0z" fill="#34a853" clip-path="url(#C)"/>
        </g>
        <path d="M13.8372 14.2955L1.5818 5.0236 0 3.863 13.8372 0z" fill="#4285f4" transform="translate(4.3488 3.4773)" clip-path="url(#D)"/>
    </g>
</svg>
