<svg width="85" height="84" viewBox="0 0 85 84" fill="none" xmlns="http://www.w3.org/2000/svg">
    <path d="M4.85938 12.3032C4.85938 7.88494 8.4411 4.30322 12.8594 4.30322H72.5611C76.9794 4.30322 80.5611 7.88494 80.5611 12.3032V71.539C80.5611 75.9573 76.9794 79.539 72.5611 79.539H12.8594C8.44111 79.539 4.85938 75.9573 4.85938 71.539V12.3032Z" fill="url(#paint0_linear)"/>
    <path d="M4.85938 12.3032C4.85938 7.88494 8.4411 4.30322 12.8594 4.30322H72.5611C76.9794 4.30322 80.5611 7.88494 80.5611 12.3032V71.539C80.5611 75.9573 76.9794 79.539 72.5611 79.539H12.8594C8.44111 79.539 4.85938 75.9573 4.85938 71.539V12.3032Z" fill="url(#paint1_linear)" fill-opacity="0.4"/>
    <path d="M4.85938 12.3032C4.85938 7.88494 8.4411 4.30322 12.8594 4.30322H72.5611C76.9794 4.30322 80.5611 7.88494 80.5611 12.3032V71.539C80.5611 75.9573 76.9794 79.539 72.5611 79.539H12.8594C8.44111 79.539 4.85938 75.9573 4.85938 71.539V12.3032Z" fill="url(#paint2_linear)" fill-opacity="0.4"/>
    <mask id="mask0" style="mask-type:alpha" maskUnits="userSpaceOnUse" x="4" y="4" width="77" height="76">
        <path d="M4.85938 12.3032C4.85938 7.88494 8.4411 4.30322 12.8594 4.30322H72.5611C76.9794 4.30322 80.5611 7.88494 80.5611 12.3032V71.539C80.5611 75.9573 76.9794 79.539 72.5611 79.539H12.8594C8.44111 79.539 4.85938 75.9573 4.85938 71.539V12.3032Z" fill="url(#paint3_linear)"/>
    </mask>
    <g mask="url(#mask0)">
        <g opacity="0.6" filter="url(#filter0_f)">
            <rect x="2.73047" y="0.96875" width="81.96" height="7.18229" fill="white"/>
        </g>
        <g opacity="0.6" filter="url(#filter1_f)">
            <rect x="2.26953" y="85.2632" width="81.96" height="7.18229" transform="rotate(-90 2.26953 85.2632)" fill="white"/>
        </g>
        <g opacity="0.4" filter="url(#filter2_f)">
            <rect x="80.5625" y="86.6284" width="81.96" height="13.6321" transform="rotate(-180 80.5625 86.6284)" fill="#16543B"/>
        </g>
        <g opacity="0.4" filter="url(#filter3_f)">
            <rect x="89.5156" y="-2.69678" width="81.96" height="13.6321" transform="rotate(90 89.5156 -2.69678)" fill="#16543B"/>
        </g>
    </g>
    <g filter="url(#filter4_ii)">
        <path d="M21.7031 38.1973L37.7828 58.6991L63.7113 24.9316" stroke="white" stroke-width="4"/>
    </g>
    <defs>
        <filter id="filter0_f" x="-2.26953" y="-4.03125" width="91.9609" height="17.1821" filterUnits="userSpaceOnUse" color-interpolation-filters="sRGB">
            <feFlood flood-opacity="0" result="BackgroundImageFix"/>
            <feBlend mode="normal" in="SourceGraphic" in2="BackgroundImageFix" result="shape"/>
            <feGaussianBlur stdDeviation="2.5" result="effect1_foregroundBlur"/>
        </filter>
        <filter id="filter1_f" x="-2.73047" y="-1.69678" width="17.1836" height="91.96" filterUnits="userSpaceOnUse" color-interpolation-filters="sRGB">
            <feFlood flood-opacity="0" result="BackgroundImageFix"/>
            <feBlend mode="normal" in="SourceGraphic" in2="BackgroundImageFix" result="shape"/>
            <feGaussianBlur stdDeviation="2.5" result="effect1_foregroundBlur"/>
        </filter>
        <filter id="filter2_f" x="-11.3984" y="62.9961" width="101.961" height="33.6323" filterUnits="userSpaceOnUse" color-interpolation-filters="sRGB">
            <feFlood flood-opacity="0" result="BackgroundImageFix"/>
            <feBlend mode="normal" in="SourceGraphic" in2="BackgroundImageFix" result="shape"/>
            <feGaussianBlur stdDeviation="5" result="effect1_foregroundBlur"/>
        </filter>
        <filter id="filter3_f" x="65.8828" y="-12.6968" width="33.6328" height="101.96" filterUnits="userSpaceOnUse" color-interpolation-filters="sRGB">
            <feFlood flood-opacity="0" result="BackgroundImageFix"/>
            <feBlend mode="normal" in="SourceGraphic" in2="BackgroundImageFix" result="shape"/>
            <feGaussianBlur stdDeviation="5" result="effect1_foregroundBlur"/>
        </filter>
        <filter id="filter4_ii" x="20.1289" y="22.7134" width="45.168" height="40.248" filterUnits="userSpaceOnUse" color-interpolation-filters="sRGB">
            <feFlood flood-opacity="0" result="BackgroundImageFix"/>
            <feBlend mode="normal" in="SourceGraphic" in2="BackgroundImageFix" result="shape"/>
            <feColorMatrix in="SourceAlpha" type="matrix" values="0 0 0 0 0 0 0 0 0 0 0 0 0 0 0 0 0 0 127 0" result="hardAlpha"/>
            <feOffset dy="1"/>
            <feGaussianBlur stdDeviation="0.5"/>
            <feComposite in2="hardAlpha" operator="arithmetic" k2="-1" k3="1"/>
            <feColorMatrix type="matrix" values="0 0 0 0 0 0 0 0 0 0 0 0 0 0 0 0 0 0 0.25 0"/>
            <feBlend mode="normal" in2="shape" result="effect1_innerShadow"/>
            <feColorMatrix in="SourceAlpha" type="matrix" values="0 0 0 0 0 0 0 0 0 0 0 0 0 0 0 0 0 0 127 0" result="hardAlpha"/>
            <feOffset dy="-1"/>
            <feGaussianBlur stdDeviation="0.5"/>
            <feComposite in2="hardAlpha" operator="arithmetic" k2="-1" k3="1"/>
            <feColorMatrix type="matrix" values="0 0 0 0 0.782031 0 0 0 0 0.9625 0 0 0 0 0.80507 0 0 0 1 0"/>
            <feBlend mode="normal" in2="effect1_innerShadow" result="effect2_innerShadow"/>
        </filter>
        <linearGradient id="paint0_linear" x1="80.5611" y1="73.0625" x2="8.86964" y2="4.30322" gradientUnits="userSpaceOnUse">
            <stop stop-color="#01977C"/>
            <stop offset="1" stop-color="#A2FF81"/>
        </linearGradient>
        <linearGradient id="paint1_linear" x1="50.6483" y1="21.6389" x2="46.0483" y2="-14.9721" gradientUnits="userSpaceOnUse">
            <stop stop-color="#7FE980"/>
            <stop offset="1" stop-color="white"/>
        </linearGradient>
        <linearGradient id="paint2_linear" x1="49.0751" y1="84.4285" x2="27.3579" y2="18.8216" gradientUnits="userSpaceOnUse">
            <stop stop-color="#035B4C"/>
            <stop offset="0.822917" stop-color="#A2FF81" stop-opacity="0"/>
            <stop offset="1" stop-color="white" stop-opacity="0"/>
        </linearGradient>
        <linearGradient id="paint3_linear" x1="80.5611" y1="73.0625" x2="8.86964" y2="4.30322" gradientUnits="userSpaceOnUse">
            <stop stop-color="#01977C"/>
            <stop offset="1" stop-color="#A2FF81"/>
        </linearGradient>
    </defs>
</svg>
