<svg width="85" height="84" viewBox="0 0 85 84" fill="none" xmlns="http://www.w3.org/2000/svg">
    <path fill-rule="evenodd" clip-rule="evenodd" d="M53.2415 15.522L62.3579 3.82388C64.1156 1.56845 67.4236 1.12413 69.3639 3.22454C78.1074 12.6897 79.3538 27.5195 58.6075 54.141L57.9784 53.6574L58.6075 54.1412C37.8612 80.7627 23.1763 83.1771 11.8618 77.0109C9.35106 75.6426 8.97374 72.3262 10.7314 70.0708L19.8478 58.3727C21.1259 56.7327 23.5787 56.7776 25.0612 58.2355C27.3626 60.4988 29.1426 61.0931 30.9674 60.9078C38.7395 60.1187 46.1469 50.6062 48.9535 47.002C49.0005 46.9416 49.0462 46.8829 49.0906 46.826L49.0899 46.8254C49.1206 46.786 49.152 46.7457 49.1841 46.7045C51.8822 43.2438 59.3692 33.6404 58.2185 25.4315C58.1636 24.193 57.1506 22.4639 54.3534 20.6633C52.6051 19.5378 51.9634 17.162 53.2415 15.522Z" fill="url(#paint0_radial)"/>
    <path fill-rule="evenodd" clip-rule="evenodd" d="M53.2415 15.522L62.3579 3.82388C64.1156 1.56845 67.4236 1.12413 69.3639 3.22454C78.1074 12.6897 79.3538 27.5195 58.6075 54.141L58.5962 54.1325L58.6075 54.1412C37.8612 80.7627 23.1763 83.1771 11.8618 77.0109C9.35106 75.6426 8.97374 72.3262 10.7314 70.0708L19.8478 58.3727C21.1259 56.7327 23.5789 56.7774 25.0611 58.2356C27.3665 60.5038 29.1527 61.1047 30.978 60.9194C38.6885 60.1366 46.2146 50.5448 49.003 46.967L48.9977 46.9631L49.0057 46.9528C51.6269 43.5893 59.6076 33.3485 58.1764 25.3353C58.1216 24.0986 57.1344 22.4252 54.3583 20.6548C52.6052 19.5367 51.9634 17.162 53.2415 15.522Z" fill="url(#paint1_linear)"/>
    <mask id="mask0" style="mask-type:alpha" maskUnits="userSpaceOnUse" x="9" y="1" width="67" height="79">
        <path fill-rule="evenodd" clip-rule="evenodd" d="M53.2415 15.522L62.3579 3.82388C64.1156 1.56845 67.4236 1.12413 69.3639 3.22454C78.1074 12.6897 79.3538 27.5195 58.6075 54.141L50.5555 47.866C50.7699 47.5908 51.0198 47.2785 51.2969 46.932C54.3971 43.0571 60.9206 34.903 59.6841 26.472C59.6278 25.2016 57.7178 22.8146 54.3468 20.6753C52.5913 19.5612 51.9634 17.162 53.2415 15.522ZM19.8478 58.3727L10.7314 70.0708C8.97374 72.3262 9.35106 75.6426 11.8618 77.0109C23.1763 83.1771 37.8612 80.7627 58.6075 54.1412L50.5555 47.8662C50.2693 48.2335 49.9435 48.6712 49.5786 49.1613C46.5085 53.2855 40.6732 61.1241 32.4187 61.9622C30.5451 62.1524 27.8878 60.9171 25.0913 58.2072C23.5982 56.7602 21.1259 56.7327 19.8478 58.3727Z" fill="url(#paint2_radial)"/>
    </mask>
    <g mask="url(#mask0)">
        <g filter="url(#filter0_f)">
            <ellipse cx="20.4195" cy="73.0083" rx="3.70523" ry="7.1819" transform="rotate(99.1149 20.4195 73.0083)" fill="white" fill-opacity="0.19"/>
        </g>
        <g filter="url(#filter1_f)">
            <ellipse cx="67.6495" cy="13.555" rx="4.46794" ry="7.35864" transform="rotate(148.49 67.6495 13.555)" fill="white" fill-opacity="0.19"/>
        </g>
        <g filter="url(#filter2_f)">
            <ellipse cx="52.6869" cy="50.6362" rx="0.912449" ry="15.2847" transform="rotate(-142.779 52.6869 50.6362)" fill="white" fill-opacity="0.7"/>
        </g>
    </g>
    <g filter="url(#filter3_f)">
        <path d="M12.6523 77.3535L26.595 59.5229" stroke="url(#paint3_linear)" stroke-width="0.15"/>
    </g>
    <g filter="url(#filter4_f)">
        <path d="M12.6523 77.6762L26.9239 59.5229" stroke="url(#paint4_linear)" stroke-width="0.1"/>
    </g>
    <g filter="url(#filter5_f)">
        <path d="M55.9141 21.8413L69.8567 4.01074" stroke="url(#paint5_linear)" stroke-width="0.15"/>
    </g>
    <g filter="url(#filter6_f)">
        <path d="M55.9141 22.164L70.1857 4.01074" stroke="url(#paint6_linear)" stroke-width="0.1"/>
    </g>
    <g opacity="0.7">
        <mask id="mask1" style="mask-type:alpha" maskUnits="userSpaceOnUse" x="9" y="1" width="67" height="79">
            <path fill-rule="evenodd" clip-rule="evenodd" d="M53.2415 15.522L62.3579 3.82388C64.1156 1.56845 67.4236 1.12413 69.3639 3.22454C78.1074 12.6897 79.3538 27.5195 58.6075 54.141L58.5884 54.1264L58.6075 54.1412C37.8612 80.7627 23.1763 83.1771 11.8618 77.0109C9.35106 75.6426 8.97374 72.3262 10.7314 70.0708L19.8478 58.3727C21.1259 56.7327 23.579 56.7777 25.0653 58.2318C27.3815 60.4978 29.1872 61.0924 31.0129 60.9071C38.799 60.1165 46.0836 50.7523 48.9395 47.0811C48.9891 47.0174 49.0373 46.9554 49.0842 46.8951L49.0737 46.8871C49.103 46.8494 49.133 46.8109 49.1637 46.7716C51.859 43.3143 59.3935 33.6498 58.2023 25.4932C58.1474 24.2543 57.1427 22.4908 54.3484 20.6721C52.6058 19.5379 51.9634 17.162 53.2415 15.522Z" fill="url(#paint7_radial)"/>
        </mask>
        <g mask="url(#mask1)">
            <g filter="url(#filter7_f)">
                <path d="M31.3705 66.6678C30.7647 63.2824 28.8754 61.0985 27.4492 60.1593L42.7514 56.9976C38.8605 60.8801 34.1698 64.5872 31.3705 66.6678Z" fill="#1C1D21"/>
            </g>
        </g>
    </g>
    <g opacity="0.7">
        <mask id="mask2" style="mask-type:alpha" maskUnits="userSpaceOnUse" x="8" y="2" width="68" height="78">
            <path fill-rule="evenodd" clip-rule="evenodd" d="M19.1728 57.5654L9.80431 69.0626C7.99805 71.2793 8.3032 74.6031 10.7837 76.0256C21.9614 82.4362 36.6954 80.3416 58.0153 54.1772L58.0071 54.1706L58.0156 54.1772C79.3355 28.0128 78.4116 13.1595 69.8759 3.50653C67.9817 1.36446 64.6648 1.73678 62.8585 3.95348L53.4901 15.4507C52.1766 17.0625 52.7699 19.4425 54.5096 20.5812C57.2083 22.3475 58.1369 23.9999 58.2956 25.7915C58.9933 33.6723 53.0084 41.789 49.011 46.9501L49.0082 46.9479C48.8096 47.1916 48.585 47.4723 48.336 47.7833C45.2193 51.6779 38.2897 60.3368 30.8496 60.9291C28.7868 61.0934 26.7632 60.1091 24.367 57.5583C22.9434 56.0429 20.4862 55.9536 19.1728 57.5654Z" fill="url(#paint8_radial)"/>
        </mask>
        <g mask="url(#mask2)">
            <g filter="url(#filter8_f)">
                <path d="M64.1452 24.8314C60.71 24.9964 58.1595 23.6422 56.9258 22.4616L57.2588 38.0834C60.1751 33.4242 62.7419 28.0244 64.1452 24.8314Z" fill="#1C1D21"/>
            </g>
        </g>
    </g>
    <defs>
        <filter id="filter0_f" x="7.30469" y="63.176" width="26.2305" height="19.6646" filterUnits="userSpaceOnUse" color-interpolation-filters="sRGB">
            <feFlood flood-opacity="0" result="BackgroundImageFix"/>
            <feBlend mode="normal" in="SourceGraphic" in2="BackgroundImageFix" result="shape"/>
            <feGaussianBlur stdDeviation="3" result="effect1_foregroundBlur"/>
        </filter>
        <filter id="filter1_f" x="56.2383" y="0.859131" width="22.8242" height="25.3918" filterUnits="userSpaceOnUse" color-interpolation-filters="sRGB">
            <feFlood flood-opacity="0" result="BackgroundImageFix"/>
            <feBlend mode="normal" in="SourceGraphic" in2="BackgroundImageFix" result="shape"/>
            <feGaussianBlur stdDeviation="3" result="effect1_foregroundBlur"/>
        </filter>
        <filter id="filter2_f" x="37.4141" y="32.4521" width="30.5469" height="36.3682" filterUnits="userSpaceOnUse" color-interpolation-filters="sRGB">
            <feFlood flood-opacity="0" result="BackgroundImageFix"/>
            <feBlend mode="normal" in="SourceGraphic" in2="BackgroundImageFix" result="shape"/>
            <feGaussianBlur stdDeviation="3" result="effect1_foregroundBlur"/>
        </filter>
        <filter id="filter3_f" x="12.0938" y="58.9768" width="15.0586" height="18.9229" filterUnits="userSpaceOnUse" color-interpolation-filters="sRGB">
            <feFlood flood-opacity="0" result="BackgroundImageFix"/>
            <feBlend mode="normal" in="SourceGraphic" in2="BackgroundImageFix" result="shape"/>
            <feGaussianBlur stdDeviation="0.25" result="effect1_foregroundBlur"/>
        </filter>
        <filter id="filter4_f" x="12.1133" y="58.9919" width="15.3516" height="19.2151" filterUnits="userSpaceOnUse" color-interpolation-filters="sRGB">
            <feFlood flood-opacity="0" result="BackgroundImageFix"/>
            <feBlend mode="normal" in="SourceGraphic" in2="BackgroundImageFix" result="shape"/>
            <feGaussianBlur stdDeviation="0.25" result="effect1_foregroundBlur"/>
        </filter>
        <filter id="filter5_f" x="55.3555" y="3.4646" width="15.0586" height="18.9229" filterUnits="userSpaceOnUse" color-interpolation-filters="sRGB">
            <feFlood flood-opacity="0" result="BackgroundImageFix"/>
            <feBlend mode="normal" in="SourceGraphic" in2="BackgroundImageFix" result="shape"/>
            <feGaussianBlur stdDeviation="0.25" result="effect1_foregroundBlur"/>
        </filter>
        <filter id="filter6_f" x="55.375" y="3.47974" width="15.3516" height="19.2151" filterUnits="userSpaceOnUse" color-interpolation-filters="sRGB">
            <feFlood flood-opacity="0" result="BackgroundImageFix"/>
            <feBlend mode="normal" in="SourceGraphic" in2="BackgroundImageFix" result="shape"/>
            <feGaussianBlur stdDeviation="0.25" result="effect1_foregroundBlur"/>
        </filter>
        <filter id="filter7_f" x="25.4492" y="54.9976" width="19.3008" height="13.6702" filterUnits="userSpaceOnUse" color-interpolation-filters="sRGB">
            <feFlood flood-opacity="0" result="BackgroundImageFix"/>
            <feBlend mode="normal" in="SourceGraphic" in2="BackgroundImageFix" result="shape"/>
            <feGaussianBlur stdDeviation="1" result="effect1_foregroundBlur"/>
        </filter>
        <filter id="filter8_f" x="54.9258" y="20.4617" width="11.2188" height="19.6218" filterUnits="userSpaceOnUse" color-interpolation-filters="sRGB">
            <feFlood flood-opacity="0" result="BackgroundImageFix"/>
            <feBlend mode="normal" in="SourceGraphic" in2="BackgroundImageFix" result="shape"/>
            <feGaussianBlur stdDeviation="1" result="effect1_foregroundBlur"/>
        </filter>
        <radialGradient id="paint0_radial" cx="0" cy="0" r="1" gradientUnits="userSpaceOnUse" gradientTransform="translate(49.6539 50.8548) rotate(123.374) scale(57.5717 27.3559)">
            <stop stop-color="#1C1D21"/>
            <stop offset="1" stop-color="#4E4E55"/>
        </radialGradient>
        <linearGradient id="paint1_linear" x1="35.1889" y1="15.5303" x2="125.828" y2="134.005" gradientUnits="userSpaceOnUse">
            <stop stop-color="#1C1D21" stop-opacity="0"/>
            <stop offset="1" stop-color="#DD44CE"/>
        </linearGradient>
        <radialGradient id="paint2_radial" cx="0" cy="0" r="1" gradientUnits="userSpaceOnUse" gradientTransform="translate(49.6539 50.8548) rotate(123.374) scale(57.5717 27.3559)">
            <stop stop-color="#1C1D21"/>
            <stop offset="1" stop-color="#4E4E55"/>
        </radialGradient>
        <linearGradient id="paint3_linear" x1="12.6523" y1="73.9623" x2="27.531" y2="59.5229" gradientUnits="userSpaceOnUse">
            <stop/>
            <stop offset="1" stop-opacity="0"/>
        </linearGradient>
        <linearGradient id="paint4_linear" x1="31.1136" y1="53.9376" x2="14.7718" y2="76.7822" gradientUnits="userSpaceOnUse">
            <stop stop-color="white" stop-opacity="0"/>
            <stop offset="1" stop-color="white"/>
        </linearGradient>
        <linearGradient id="paint5_linear" x1="69.414" y1="4.01074" x2="58.0586" y2="20.966" gradientUnits="userSpaceOnUse">
            <stop/>
            <stop offset="1" stop-opacity="0"/>
        </linearGradient>
        <linearGradient id="paint6_linear" x1="74.3753" y1="-1.57464" x2="58.0335" y2="21.27" gradientUnits="userSpaceOnUse">
            <stop stop-color="white" stop-opacity="0"/>
            <stop offset="1" stop-color="white"/>
        </linearGradient>
        <radialGradient id="paint7_radial" cx="0" cy="0" r="1" gradientUnits="userSpaceOnUse" gradientTransform="translate(49.6539 50.8548) rotate(123.374) scale(57.5717 27.3559)">
            <stop stop-color="#1C1D21"/>
            <stop offset="1" stop-color="#4E4E55"/>
        </radialGradient>
        <radialGradient id="paint8_radial" cx="0" cy="0" r="1" gradientUnits="userSpaceOnUse" gradientTransform="translate(52.8138 46.1828) rotate(-46.2698) scale(57.5717 27.3559)">
            <stop stop-color="#1C1D21"/>
            <stop offset="1" stop-color="#4E4E55"/>
        </radialGradient>
    </defs>
</svg>
