<svg width="85" height="84" viewBox="0 0 85 84" fill="none" xmlns="http://www.w3.org/2000/svg">
    <path d="M42.7118 83.6337C65.8823 83.6337 84.6658 64.9133 84.6658 41.8205C84.6658 18.7277 65.8823 0.00732422 42.7118 0.00732422C19.5412 0.00732422 0.757812 18.7277 0.757812 41.8205C0.757812 64.9133 19.5412 83.6337 42.7118 83.6337Z" fill="url(#paint0_radial)"/>
    <path d="M42.7118 83.6335C65.8823 83.6335 84.6658 64.9131 84.6658 41.8203C84.6658 18.7275 65.8823 0.00708008 42.7118 0.00708008C19.5412 0.00708008 0.757812 18.7275 0.757812 41.8203C0.757812 64.9131 19.5412 83.6335 42.7118 83.6335Z" fill="url(#paint1_linear)"/>
    <g filter="url(#filter0_i)">
        <path d="M42.7118 83.6335C65.8823 83.6335 84.6658 64.9131 84.6658 41.8203C84.6658 18.7275 65.8823 0.00708008 42.7118 0.00708008C19.5412 0.00708008 0.757812 18.7275 0.757812 41.8203C0.757812 64.9131 19.5412 83.6335 42.7118 83.6335Z" fill="#FFFEFE" fill-opacity="0.01"/>
    </g>
    <path d="M42.7118 83.6335C65.8823 83.6335 84.6658 64.9131 84.6658 41.8203C84.6658 18.7275 65.8823 0.00708008 42.7118 0.00708008C19.5412 0.00708008 0.757812 18.7275 0.757812 41.8203C0.757812 64.9131 19.5412 83.6335 42.7118 83.6335Z" fill="url(#paint2_radial)"/>
    <g filter="url(#filter1_di)">
        <path fill-rule="evenodd" clip-rule="evenodd" d="M27.5333 34.5635C21.8994 34.5637 17.3496 40.7135 16.5087 43.0659C16.4427 43.2267 16.4062 43.4028 16.4062 43.5874C16.4062 44.3462 17.0214 44.9614 17.7802 44.9614C18.29 44.9614 18.7349 44.6838 18.9721 44.2715C20.0994 42.7156 23.3106 38.9658 27.5333 38.9934C31.7946 39.0212 35.1064 42.8796 36.1596 44.2586C36.3948 44.678 36.8437 44.9614 37.3587 44.9614C38.1176 44.9614 38.7327 44.3462 38.7327 43.5874C38.7327 43.4256 38.7048 43.2704 38.6534 43.1262L38.6539 43.126C37.8284 40.7772 33.1842 34.5633 27.5333 34.5635Z" fill="url(#paint3_linear)"/>
    </g>
    <g filter="url(#filter2_di)">
        <path fill-rule="evenodd" clip-rule="evenodd" d="M58.1583 34.5635C52.5244 34.5637 47.9746 40.7135 47.1337 43.0659C47.0677 43.2267 47.0312 43.4028 47.0312 43.5874C47.0312 44.3462 47.6464 44.9614 48.4052 44.9614C48.915 44.9614 49.3599 44.6838 49.5971 44.2715C50.7244 42.7156 53.9356 38.9658 58.1583 38.9934C62.4196 39.0212 65.7314 42.8796 66.7846 44.2586C67.0198 44.678 67.4687 44.9614 67.9837 44.9614C68.7426 44.9614 69.3577 44.3462 69.3577 43.5874C69.3577 43.4256 69.3298 43.2704 69.2784 43.1262L69.2789 43.126C68.4534 40.7772 63.8092 34.5633 58.1583 34.5635Z" fill="url(#paint4_linear)"/>
    </g>
    <g filter="url(#filter3_di)">
        <path fill-rule="evenodd" clip-rule="evenodd" d="M42.9007 57.486C40.1345 57.5524 32.6181 57.0538 26.9295 55.6966C25.5025 55.3561 24.144 56.4947 24.6453 57.8736C26.7172 63.5734 32.8975 71.3587 42.9007 71.4215V71.4218C42.921 71.4218 42.9413 71.4218 42.9616 71.4217C42.9819 71.4218 43.0022 71.4218 43.0225 71.4218V71.4215C53.0257 71.3587 59.206 63.5734 61.278 57.8736C61.7792 56.4947 60.4207 55.3561 58.9937 55.6966C53.3051 57.0538 45.7887 57.5524 43.0225 57.486V57.4826C43.0025 57.4832 42.9822 57.4839 42.9616 57.4844C42.941 57.4839 42.9207 57.4832 42.9007 57.4826V57.486Z" fill="url(#paint5_linear)"/>
    </g>
    <mask id="mask0" style="mask-type:alpha" maskUnits="userSpaceOnUse" x="25" y="56" width="35" height="15">
        <path fill-rule="evenodd" clip-rule="evenodd" d="M42.9018 58.7686C40.1878 58.8268 32.4212 58.3478 27.1877 57.0288C26.4859 56.8519 25.8192 57.4175 26.0327 58.1091C27.4642 62.7476 33.1933 69.988 42.9018 70.0425V70.0428C42.9202 70.0428 42.9385 70.0428 42.9569 70.0427C42.9753 70.0428 42.9937 70.0428 43.0121 70.0428V70.0425C52.7205 69.988 58.4497 62.7476 59.8812 58.1091C60.0946 57.4175 59.4279 56.8519 58.7261 57.0288C53.4926 58.3478 45.7261 58.8268 43.0121 58.7686V58.7659C42.9939 58.7664 42.9755 58.7669 42.9569 58.7674C42.9383 58.7669 42.9199 58.7664 42.9018 58.7659V58.7686Z" fill="url(#paint6_linear)"/>
    </mask>
    <g mask="url(#mask0)">
        <g opacity="0.1" filter="url(#filter4_f)">
            <path d="M23.2266 58.9233L26.5273 54.3774H60.4743L62.6686 58.9233L61.2935 61.7403C60.4783 63.41 58.6233 64.2855 56.7876 63.9976C47.356 62.5184 35.6494 63.2728 28.5486 64.138C26.6452 64.37 24.8094 63.2882 24.1557 61.4856L23.2266 58.9233Z" fill="#1C1D21"/>
        </g>
        <path d="M23.2578 57.9238L26.5586 53.3779H60.5056L62.6999 57.9238L61.2979 60.9278C60.7958 62.0035 59.8457 62.8102 58.6854 63.0611C48.3882 65.2869 35.3711 64.2833 27.6109 63.3109C26.2008 63.1342 25.0076 62.1994 24.4693 60.8842L23.2578 57.9238Z" fill="white" stroke="#C6C8CC" stroke-width="0.2"/>
    </g>
    <path fill-rule="evenodd" clip-rule="evenodd" d="M42.9007 57.486C40.1345 57.5524 32.6181 57.0538 26.9295 55.6966C25.5025 55.3561 24.144 56.4947 24.6453 57.8736C26.7172 63.5734 32.8975 71.3587 42.9007 71.4215V71.4218C42.921 71.4218 42.9413 71.4218 42.9616 71.4217C42.9819 71.4218 43.0022 71.4218 43.0225 71.4218V71.4215C53.0257 71.3587 59.206 63.5734 61.278 57.8736C61.7792 56.4947 60.4207 55.3561 58.9937 55.6966C53.3051 57.0538 45.7887 57.5524 43.0225 57.486V57.4826C43.0025 57.4832 42.9822 57.4839 42.9616 57.4844C42.941 57.4839 42.9207 57.4832 42.9007 57.4826V57.486Z" fill="url(#paint7_radial)"/>
    <defs>
        <filter id="filter0_i" x="0.757812" y="0.00708008" width="83.9062" height="83.6265" filterUnits="userSpaceOnUse" color-interpolation-filters="sRGB">
            <feFlood flood-opacity="0" result="BackgroundImageFix"/>
            <feBlend mode="normal" in="SourceGraphic" in2="BackgroundImageFix" result="shape"/>
            <feColorMatrix in="SourceAlpha" type="matrix" values="0 0 0 0 0 0 0 0 0 0 0 0 0 0 0 0 0 0 127 0" result="hardAlpha"/>
            <feOffset/>
            <feGaussianBlur stdDeviation="8"/>
            <feComposite in2="hardAlpha" operator="arithmetic" k2="-1" k3="1"/>
            <feColorMatrix type="matrix" values="0 0 0 0 0 0 0 0 0 0 0 0 0 0 0 0 0 0 0.16 0"/>
            <feBlend mode="normal" in2="shape" result="effect1_innerShadow"/>
        </filter>
        <filter id="filter1_di" x="16.1062" y="34.5635" width="22.9281" height="11.1179" filterUnits="userSpaceOnUse" color-interpolation-filters="sRGB">
            <feFlood flood-opacity="0" result="BackgroundImageFix"/>
            <feColorMatrix in="SourceAlpha" type="matrix" values="0 0 0 0 0 0 0 0 0 0 0 0 0 0 0 0 0 0 127 0" result="hardAlpha"/>
            <feOffset dy="0.42"/>
            <feGaussianBlur stdDeviation="0.15"/>
            <feColorMatrix type="matrix" values="0 0 0 0 1 0 0 0 0 0.901961 0 0 0 0 0.666667 0 0 0 1 0"/>
            <feBlend mode="normal" in2="BackgroundImageFix" result="effect1_dropShadow"/>
            <feBlend mode="normal" in="SourceGraphic" in2="effect1_dropShadow" result="shape"/>
            <feColorMatrix in="SourceAlpha" type="matrix" values="0 0 0 0 0 0 0 0 0 0 0 0 0 0 0 0 0 0 127 0" result="hardAlpha"/>
            <feOffset dx="0.4" dy="0.4"/>
            <feGaussianBlur stdDeviation="0.14"/>
            <feComposite in2="hardAlpha" operator="arithmetic" k2="-1" k3="1"/>
            <feColorMatrix type="matrix" values="0 0 0 0 0 0 0 0 0 0 0 0 0 0 0 0 0 0 1 0"/>
            <feBlend mode="normal" in2="shape" result="effect2_innerShadow"/>
        </filter>
        <filter id="filter2_di" x="46.7312" y="34.5635" width="22.9281" height="11.1179" filterUnits="userSpaceOnUse" color-interpolation-filters="sRGB">
            <feFlood flood-opacity="0" result="BackgroundImageFix"/>
            <feColorMatrix in="SourceAlpha" type="matrix" values="0 0 0 0 0 0 0 0 0 0 0 0 0 0 0 0 0 0 127 0" result="hardAlpha"/>
            <feOffset dy="0.42"/>
            <feGaussianBlur stdDeviation="0.15"/>
            <feColorMatrix type="matrix" values="0 0 0 0 1 0 0 0 0 0.901961 0 0 0 0 0.666667 0 0 0 1 0"/>
            <feBlend mode="normal" in2="BackgroundImageFix" result="effect1_dropShadow"/>
            <feBlend mode="normal" in="SourceGraphic" in2="effect1_dropShadow" result="shape"/>
            <feColorMatrix in="SourceAlpha" type="matrix" values="0 0 0 0 0 0 0 0 0 0 0 0 0 0 0 0 0 0 127 0" result="hardAlpha"/>
            <feOffset dx="0.4" dy="0.4"/>
            <feGaussianBlur stdDeviation="0.14"/>
            <feComposite in2="hardAlpha" operator="arithmetic" k2="-1" k3="1"/>
            <feColorMatrix type="matrix" values="0 0 0 0 0 0 0 0 0 0 0 0 0 0 0 0 0 0 1 0"/>
            <feBlend mode="normal" in2="shape" result="effect2_innerShadow"/>
        </filter>
        <filter id="filter3_di" x="24.2891" y="55.6357" width="37.3438" height="16.5361" filterUnits="userSpaceOnUse" color-interpolation-filters="sRGB">
            <feFlood flood-opacity="0" result="BackgroundImageFix"/>
            <feColorMatrix in="SourceAlpha" type="matrix" values="0 0 0 0 0 0 0 0 0 0 0 0 0 0 0 0 0 0 127 0" result="hardAlpha"/>
            <feOffset dy="0.5"/>
            <feGaussianBlur stdDeviation="0.125"/>
            <feColorMatrix type="matrix" values="0 0 0 0 1 0 0 0 0 0.905882 0 0 0 0 0.678431 0 0 0 1 0"/>
            <feBlend mode="normal" in2="BackgroundImageFix" result="effect1_dropShadow"/>
            <feBlend mode="normal" in="SourceGraphic" in2="effect1_dropShadow" result="shape"/>
            <feColorMatrix in="SourceAlpha" type="matrix" values="0 0 0 0 0 0 0 0 0 0 0 0 0 0 0 0 0 0 127 0" result="hardAlpha"/>
            <feOffset dx="0.35" dy="0.35"/>
            <feGaussianBlur stdDeviation="0.125"/>
            <feComposite in2="hardAlpha" operator="arithmetic" k2="-1" k3="1"/>
            <feColorMatrix type="matrix" values="0 0 0 0 0 0 0 0 0 0 0 0 0 0 0 0 0 0 1 0"/>
            <feBlend mode="normal" in2="shape" result="effect2_innerShadow"/>
        </filter>
        <filter id="filter4_f" x="22.2266" y="53.3774" width="41.4414" height="11.7917" filterUnits="userSpaceOnUse" color-interpolation-filters="sRGB">
            <feFlood flood-opacity="0" result="BackgroundImageFix"/>
            <feBlend mode="normal" in="SourceGraphic" in2="BackgroundImageFix" result="shape"/>
            <feGaussianBlur stdDeviation="0.5" result="effect1_foregroundBlur"/>
        </filter>
        <radialGradient id="paint0_radial" cx="0" cy="0" r="1" gradientUnits="userSpaceOnUse" gradientTransform="translate(42.7118 41.8205) scale(41.954 41.8132)">
            <stop stop-color="#F4D894"/>
            <stop offset="0.57" stop-color="#FACA56"/>
            <stop offset="0.75" stop-color="#EFBC40"/>
            <stop offset="0.9" stop-color="#E7B02C"/>
            <stop offset="1" stop-color="#E79A27"/>
        </radialGradient>
        <linearGradient id="paint1_linear" x1="54.9561" y1="50.0071" x2="106.956" y2="73.5071" gradientUnits="userSpaceOnUse">
            <stop stop-color="#DD44CE" stop-opacity="0"/>
            <stop offset="1" stop-color="#DD44CE"/>
        </linearGradient>
        <radialGradient id="paint2_radial" cx="0" cy="0" r="1" gradientUnits="userSpaceOnUse" gradientTransform="translate(80.9561 62.5071) rotate(-141.752) scale(82.3824 245.238)">
            <stop stop-color="#D6A532" stop-opacity="0"/>
            <stop offset="0.347203" stop-color="#D6A532" stop-opacity="0"/>
            <stop offset="1" stop-color="#FFFDF9"/>
        </radialGradient>
        <linearGradient id="paint3_linear" x1="27.5695" y1="34.5635" x2="27.5695" y2="44.9614" gradientUnits="userSpaceOnUse">
            <stop/>
            <stop offset="1" stop-color="#8F4A3C"/>
        </linearGradient>
        <linearGradient id="paint4_linear" x1="58.1945" y1="34.5635" x2="58.1945" y2="44.9614" gradientUnits="userSpaceOnUse">
            <stop/>
            <stop offset="1" stop-color="#8F4A3C"/>
        </linearGradient>
        <linearGradient id="paint5_linear" x1="42.9616" y1="55.6357" x2="42.9616" y2="71.4218" gradientUnits="userSpaceOnUse">
            <stop/>
            <stop offset="1" stop-color="#874739"/>
        </linearGradient>
        <linearGradient id="paint6_linear" x1="42.9569" y1="56.9961" x2="42.9569" y2="70.0428" gradientUnits="userSpaceOnUse">
            <stop/>
            <stop offset="1" stop-color="#874739"/>
        </linearGradient>
        <radialGradient id="paint7_radial" cx="0" cy="0" r="1" gradientUnits="userSpaceOnUse" gradientTransform="translate(42.9616 63.5288) rotate(90) scale(7.89305 18.4225)">
            <stop stop-color="white" stop-opacity="0"/>
            <stop offset="1" stop-opacity="0.1"/>
        </radialGradient>
    </defs>
</svg>
