<svg width="85" height="84" viewBox="0 0 85 84" fill="none" xmlns="http://www.w3.org/2000/svg">
    <path d="M2.96778 22.8608C-0.17936 34.5909 2.05385 46.2657 3.56385 50.6368C19.7763 50.6368 22.3989 53.6168 24.7831 55.6434C27.1673 57.6699 43.3798 68.0412 49.6979 69.7101C54.7524 71.0452 56.8107 67.9617 57.2081 66.253C63.6931 67.5882 65.6322 62.9946 65.7911 60.531C70.5595 60.4356 72.5463 56.756 72.9437 54.9281C78.1889 56.001 78.7048 50.1087 78.4664 48.5588C78.228 47.0089 74.7318 40.6645 72.9437 38.8763C71.1556 37.0882 63.6008 29.8441 58.8324 27.2215C55.0177 25.1234 48.3866 24.6887 45.4063 24.0529L39.5651 17.3772C28.8362 15.2315 24.7831 21.4303 22.3989 22.8608C20.4916 24.0051 8.6501 23.3376 2.96778 22.8608Z" fill="url(#paint0_radial)"/>
    <path d="M2.96778 22.8608C-0.17936 34.5909 2.05385 46.2657 3.56385 50.6368C19.7763 50.6368 22.3989 53.6168 24.7831 55.6434C27.1673 57.6699 43.3798 68.0412 49.6979 69.7101C54.7524 71.0452 56.8107 67.9617 57.2081 66.253C63.6931 67.5882 65.6322 62.9946 65.7911 60.531C70.5595 60.4356 72.5463 56.756 72.9437 54.9281C78.1889 56.001 78.7048 50.1087 78.4664 48.5588C78.228 47.0089 74.7318 40.6645 72.9437 38.8763C71.1556 37.0882 63.6008 29.8441 58.8324 27.2215C55.0177 25.1234 48.3866 24.6887 45.4063 24.0529L39.5651 17.3772C28.8362 15.2315 24.7831 21.4303 22.3989 22.8608C20.4916 24.0051 8.6501 23.3376 2.96778 22.8608Z" fill="url(#paint1_linear)"/>
    <g opacity="0.2">
        <mask id="mask0" style="mask-type:alpha" maskUnits="userSpaceOnUse" x="1" y="16" width="78" height="55">
            <path d="M2.96778 22.8608C-0.17936 34.5909 2.05385 46.2657 3.56385 50.6368C19.7763 50.6368 22.3989 53.6168 24.7831 55.6434C27.1673 57.6699 43.3798 68.0412 49.6979 69.7101C54.7524 71.0452 56.8107 67.9617 57.2081 66.253C63.6931 67.5882 65.6322 62.9946 65.7911 60.531C70.5595 60.4356 72.5463 56.756 72.9437 54.9281C78.1889 56.001 78.7048 50.1087 78.4664 48.5588C78.228 47.0089 74.7318 40.6645 72.9437 38.8763C71.1556 37.0882 63.6008 29.8441 58.8324 27.2215C55.0177 25.1234 48.3866 24.6887 45.4063 24.0529L39.5651 17.3772C28.8362 15.2315 24.7831 21.4303 22.3989 22.8608C20.4916 24.0051 8.6501 23.3376 2.96778 22.8608Z" fill="url(#paint2_linear)"/>
        </mask>
        <g mask="url(#mask0)">
            <g filter="url(#filter0_f)">
                <path d="M51.5983 59.9891L43.9883 67.4223L46.466 72.0238L59.2083 70.8735L80.0915 59.1045V44.5039C77.4074 42.3212 72.1984 38.2212 72.8355 39.2831C73.6319 40.6104 75.7556 43.4422 75.9326 46.9817C76.0742 49.8133 73.3959 51.288 72.0391 51.6714C72.2456 52.2319 72.2869 53.8836 70.8003 56.0074C69.3137 58.1311 65.7564 58.426 64.1636 58.3079C63.8097 59.2223 62.4293 61.2281 59.7392 61.936C57.0492 62.6439 53.1911 60.933 51.5983 59.9891Z" fill="black"/>
            </g>
        </g>
    </g>
    <g opacity="0.1">
        <mask id="mask1" style="mask-type:alpha" maskUnits="userSpaceOnUse" x="1" y="16" width="78" height="55">
            <path d="M2.96778 22.8608C-0.17936 34.5909 2.05385 46.2657 3.56385 50.6368C19.7763 50.6368 22.3989 53.6168 24.7831 55.6434C27.1673 57.6699 43.3798 68.0412 49.6979 69.7101C54.7524 71.0452 56.8107 67.9617 57.2081 66.253C63.6931 67.5882 65.6322 62.9946 65.7911 60.531C70.5595 60.4356 72.5463 56.756 72.9437 54.9281C78.1889 56.001 78.7048 50.1087 78.4664 48.5588C78.228 47.0089 74.7318 40.6645 72.9437 38.8763C71.1556 37.0882 63.6008 29.8441 58.8324 27.2215C55.0177 25.1234 48.3866 24.6887 45.4063 24.0529L39.5651 17.3772C28.8362 15.2315 24.7831 21.4303 22.3989 22.8608C20.4916 24.0051 8.6501 23.3376 2.96778 22.8608Z" fill="url(#paint3_linear)"/>
        </mask>
        <g mask="url(#mask1)">
            <g filter="url(#filter1_f)">
                <path d="M51.3996 58.7812L43.4933 67.1015L53.2084 71.5999L63.9824 66.0163L79.0817 54.0626L79.6322 45.412L70.2738 31.9642L45.9733 21.1116C40.5732 22.8941 30.6538 26.9468 34.1769 28.8972C38.5809 31.3351 44.7937 27.7174 45.9733 27.0884C47.1529 26.4593 48.5685 24.5717 54.388 27.7174C60.2075 30.8631 70.3524 37.6262 70.2738 41.4011C70.2108 44.4209 67.364 45.3333 65.9484 45.412C66.8397 46.4343 68.2448 49.2339 66.7349 52.2538C65.2249 55.2737 62.1212 55.1373 60.758 54.6916C61.3872 55.7926 61.9377 59.4102 58.9493 60.6685C56.5585 61.6751 52.92 59.8297 51.3996 58.7812Z" fill="black"/>
            </g>
        </g>
    </g>
    <mask id="mask2" style="mask-type:alpha" maskUnits="userSpaceOnUse" x="1" y="16" width="78" height="55">
        <path d="M2.96778 22.8608C-0.17936 34.5909 2.05385 46.2657 3.56385 50.6368C19.7763 50.6368 22.3989 53.6168 24.7831 55.6434C27.1673 57.6699 43.3798 68.0412 49.6979 69.7101C54.7524 71.0452 56.8107 67.9617 57.2081 66.253C63.6931 67.5882 65.6322 62.9946 65.7911 60.531C70.5595 60.4356 72.5463 56.756 72.9437 54.9281C78.1889 56.001 78.7048 50.1087 78.4664 48.5588C78.228 47.0089 74.7318 40.6645 72.9437 38.8763C71.1556 37.0882 63.6008 29.8441 58.8324 27.2215C55.0177 25.1234 48.3866 24.6887 45.4063 24.0529L39.5651 17.3772C28.8362 15.2315 24.7831 21.4303 22.3989 22.8608C20.4916 24.0051 8.6501 23.3376 2.96778 22.8608Z" fill="url(#paint4_radial)"/>
    </mask>
    <g mask="url(#mask2)">
        <g filter="url(#filter2_f)">
            <path d="M2.96778 22.8608C-0.17936 34.5909 2.05385 46.2657 3.56385 50.6368C19.7763 50.6368 22.3989 53.6168 24.7831 55.6434C27.1673 57.6699 43.3798 68.0412 49.6979 69.7101C54.7524 71.0452 56.8107 67.9617 57.2081 66.253C63.6931 67.5882 65.6322 62.9946 65.7911 60.531C70.5595 60.4356 72.5463 56.756 72.9437 54.9281C78.1889 56.001 78.7048 50.1087 78.4664 48.5588C78.228 47.0089 74.7318 40.6645 72.9437 38.8763C71.1556 37.0882 63.6008 29.8441 58.8324 27.2215C55.0177 25.1234 48.3866 24.6887 45.4063 24.0529L39.5651 17.3772C28.8362 15.2315 24.7831 21.4303 22.3989 22.8608C20.4916 24.0051 8.6501 23.3376 2.96778 22.8608Z" stroke="#8F4A3C" stroke-width="0.694205"/>
        </g>
    </g>
    <g filter="url(#filter3_f)">
        <path d="M72.9998 54.8131C73.0181 54.7081 73.0334 54.5766 73.0423 54.4246C72.9726 53.8245 72.4715 52.5908 70.8383 50.4993C68.1447 47.0495 63.23 43.3163 61.7178 42.0876C60.602 41.181 59.0559 39.4503 58.2681 38.5177C58.2043 38.4446 58.1436 38.3721 58.0859 38.3C58.1408 38.3663 58.2018 38.4392 58.2681 38.5177C59.2574 39.6507 61 40.9331 63.7915 43.0547C66.7632 45.3131 71.2119 49.8555 72.2684 51.3997C72.9711 52.4268 73.0858 53.6749 73.0423 54.4246C73.0645 54.6163 73.0428 54.7434 72.9998 54.8131Z" fill="#8F4A3C"/>
    </g>
    <g filter="url(#filter4_f)">
        <path d="M65.5283 61.1696C65.5424 61.0887 65.5542 60.9875 65.561 60.8705C65.5073 60.4085 65.1216 59.4588 63.8643 57.8486C61.7906 55.1928 58.007 52.3188 56.8429 51.3729C55.9839 50.6749 54.7936 49.3425 54.1871 48.6246C54.138 48.5683 54.0912 48.5125 54.0469 48.457C54.0891 48.508 54.136 48.5641 54.1871 48.6246C54.9487 49.4968 56.2902 50.4841 58.4393 52.1174C60.727 53.856 64.1519 57.353 64.9652 58.5418C65.5062 59.3325 65.5945 60.2933 65.561 60.8705C65.5781 61.0181 65.5614 61.1159 65.5283 61.1696Z" fill="#8F4A3C"/>
    </g>
    <g filter="url(#filter5_f)">
        <path d="M57.2315 66.242C57.2342 66.2263 57.2369 66.2075 57.2396 66.1859C57.2248 65.8575 56.616 64.414 56.3517 63.8635C55.9607 63.0489 51.9625 60.3133 51.1766 59.6747C50.5967 59.2036 49.7932 58.3041 49.3837 57.8194C49.3506 57.7814 49.319 57.7437 49.2891 57.7063C49.3176 57.7407 49.3493 57.7786 49.3837 57.8194C49.8979 58.4083 50.8035 59.0747 52.2543 60.1774C53.7987 61.3511 55.3091 61.7945 56.8568 63.6843C57.3257 64.2569 57.2925 65.7622 57.2396 66.1859C57.2408 66.2119 57.2382 66.231 57.2315 66.242Z" fill="#8F4A3C"/>
    </g>
    <path d="M39.6891 70.0104C38.0376 69.0108 37.5884 67.0948 37.5703 66.2618L46.154 55.668C49.7396 54.2555 52.0756 56.7547 51.8583 59.5797C51.641 62.4047 49.1963 66.2618 46.6973 68.5979C44.1982 70.9341 41.7535 71.2599 39.6891 70.0104Z" fill="url(#paint5_radial)"/>
    <mask id="mask3" style="mask-type:alpha" maskUnits="userSpaceOnUse" x="37" y="55" width="15" height="16">
        <path opacity="0.1" d="M39.6891 70.0104C38.0376 69.0108 37.5884 67.0948 37.5703 66.2618L46.154 55.668C49.7396 54.2555 52.0756 56.7547 51.8583 59.5797C51.641 62.4047 49.1963 66.2618 46.6973 68.5979C44.1982 70.9341 41.7535 71.2599 39.6891 70.0104Z" fill="url(#paint6_radial)"/>
    </mask>
    <g mask="url(#mask3)">
        <g filter="url(#filter6_f)">
            <path d="M46.4999 63.8285C43.5796 63.64 42.1823 61.395 41.8487 60.2961L35.9023 66.3014L37.4331 72.6011L46.4999 72.2478L52.093 60.2961C51.4454 61.5522 49.4201 64.0171 46.4999 63.8285Z" fill="black"/>
        </g>
    </g>
    <mask id="mask4" style="mask-type:alpha" maskUnits="userSpaceOnUse" x="37" y="55" width="15" height="16">
        <path d="M39.6891 70.0104C38.0376 69.0108 37.5884 67.0948 37.5703 66.2618L46.154 55.668C49.7396 54.2555 52.0756 56.7547 51.8583 59.5797C51.641 62.4047 49.1963 66.2618 46.6973 68.5979C44.1982 70.9341 41.7535 71.2599 39.6891 70.0104Z" fill="url(#paint7_radial)"/>
    </mask>
    <g mask="url(#mask4)">
        <g filter="url(#filter7_f)">
            <path d="M39.6891 70.0104C38.0376 69.0108 37.5884 67.0948 37.5703 66.2618L46.154 55.668C49.7396 54.2555 52.0756 56.7547 51.8583 59.5797C51.641 62.4047 49.1963 66.2618 46.6973 68.5979C44.1982 70.9341 41.7535 71.2599 39.6891 70.0104Z" stroke="#8F4A3C" stroke-width="0.694205"/>
        </g>
    </g>
    <path d="M27.4378 60.9536C27.1846 64.5486 29.0201 66.7978 29.9695 67.473C30.5445 67.8819 32.4854 69.203 35.7292 67.473C39.5268 65.4476 44.2105 59.6879 45.5397 57.1561C46.8688 54.6244 47.0587 51.2697 44.2105 49.5608C41.3623 47.8519 39.0837 49.6242 37.628 50.5103C36.4634 51.2192 30.3493 57.7679 27.4378 60.9536Z" fill="url(#paint8_radial)"/>
    <g opacity="0.1">
        <mask id="mask5" style="mask-type:alpha" maskUnits="userSpaceOnUse" x="27" y="48" width="20" height="21">
            <path d="M27.4378 60.9536C27.1846 64.5486 29.0201 66.7978 29.9695 67.473C30.5445 67.8819 32.4854 69.203 35.7292 67.473C39.5268 65.4476 44.2105 59.6879 45.5397 57.1561C46.8688 54.6244 47.0587 51.2697 44.2105 49.5608C41.3623 47.8519 39.0837 49.6242 37.628 50.5103C36.4634 51.2192 30.3493 57.7679 27.4378 60.9536Z" fill="url(#paint9_radial)"/>
        </mask>
        <g mask="url(#mask5)">
            <g filter="url(#filter8_f)">
                <path d="M38.7485 58.8961C35.3722 58.2529 33.7912 55.1446 33.4228 53.6709L26.4893 57.2884L25.4844 65.1264L32.7194 71.3565L40.4568 65.1264L45.4811 57.2884C44.6437 58.0923 42.1249 59.5393 38.7485 58.8961Z" fill="black"/>
            </g>
        </g>
    </g>
    <mask id="mask6" style="mask-type:alpha" maskUnits="userSpaceOnUse" x="27" y="48" width="20" height="21">
        <path d="M27.4378 60.9536C27.1846 64.5486 29.0201 66.7978 29.9695 67.473C30.5445 67.8819 32.4854 69.203 35.7292 67.473C39.5268 65.4476 44.2105 59.6879 45.5397 57.1561C46.8688 54.6244 47.0587 51.2697 44.2105 49.5608C41.3623 47.8519 39.0837 49.6242 37.628 50.5103C36.4634 51.2192 30.3493 57.7679 27.4378 60.9536Z" fill="url(#paint10_radial)"/>
    </mask>
    <g mask="url(#mask6)">
        <g filter="url(#filter9_f)">
            <path d="M27.4378 60.9536C27.1846 64.5486 29.0201 66.7978 29.9695 67.473C30.5445 67.8819 32.4854 69.203 35.7292 67.473C39.5268 65.4476 44.2105 59.6879 45.5397 57.1561C46.8688 54.6244 47.0587 51.2697 44.2105 49.5608C41.3623 47.8519 39.0837 49.6242 37.628 50.5103C36.4634 51.2192 30.3493 57.7679 27.4378 60.9536Z" stroke="#8F4A3C" stroke-width="0.694205"/>
        </g>
    </g>
    <path d="M18.6406 55.8155C18.8432 58.2459 20.3706 60.2461 21.1091 60.9424C26.9954 65.1831 35.4134 53.7902 35.54 52.7775C35.6665 51.7648 36.6792 48.2837 33.1981 46.4482C29.717 44.6127 25.7295 47.7141 24.5902 49.7395C23.6788 51.3598 20.2441 54.4653 18.6406 55.8155Z" fill="url(#paint11_radial)"/>
    <g opacity="0.1">
        <mask id="mask7" style="mask-type:alpha" maskUnits="userSpaceOnUse" x="18" y="45" width="18" height="17">
            <path d="M18.6406 55.8155C18.8432 58.2459 20.3706 60.2461 21.1091 60.9424C26.9954 65.1831 35.4134 53.7902 35.54 52.7775C35.6665 51.7648 36.6792 48.2837 33.1981 46.4482C29.717 44.6127 25.7295 47.7141 24.5902 49.7395C23.6788 51.3598 20.2441 54.4653 18.6406 55.8155Z" fill="url(#paint12_radial)"/>
        </mask>
        <g mask="url(#mask7)">
            <g filter="url(#filter10_f)">
                <path d="M27.7585 56.0076C30.2988 57.4091 32.7066 56.2175 34.3474 54.7208L35.9953 52.7912C35.624 53.3679 35.0576 54.0729 34.3474 54.7208L23.6008 67.3038L16.1484 61.8125L19.1294 53.3403L25.1784 48.8718C24.5697 50.6966 24.3814 54.1445 27.7585 56.0076Z" fill="black"/>
            </g>
        </g>
    </g>
    <mask id="mask8" style="mask-type:alpha" maskUnits="userSpaceOnUse" x="18" y="45" width="18" height="17">
        <path d="M18.6406 55.8155C18.8432 58.2459 20.3706 60.2461 21.1091 60.9424C26.9954 65.1831 35.4134 53.7902 35.54 52.7775C35.6665 51.7648 36.6792 48.2837 33.1981 46.4482C29.717 44.6127 25.7295 47.7141 24.5902 49.7395C23.6788 51.3598 20.2441 54.4653 18.6406 55.8155Z" fill="url(#paint13_radial)"/>
    </mask>
    <g mask="url(#mask8)">
        <g filter="url(#filter11_f)">
            <path d="M18.6406 55.8155C18.8432 58.2459 20.3706 60.2461 21.1091 60.9424C26.9954 65.1831 35.4134 53.7902 35.54 52.7775C35.6665 51.7648 36.6792 48.2837 33.1981 46.4482C29.717 44.6127 25.7295 47.7141 24.5902 49.7395C23.6788 51.3598 20.2441 54.4653 18.6406 55.8155Z" stroke="#8F4A3C" stroke-width="0.694205"/>
        </g>
    </g>
    <g filter="url(#filter12_f)">
        <path d="M40.8705 27.99C43.8838 26.5043 48.4989 17.4467 60.305 29.033C52.7445 26.6818 45.7742 26.7301 40.8705 27.99Z" fill="black" fill-opacity="0.1"/>
    </g>
    <g opacity="0.16" filter="url(#filter13_f)">
        <path d="M32.3328 31.8184C29.7067 30.5782 31.2386 28.2015 32.3328 27.1681C37.3174 25.2837 46.7579 22.4632 44.6425 26.2564C41.9982 30.9979 35.6153 33.3687 32.3328 31.8184Z" fill="black"/>
    </g>
    <path d="M69.9068 25.8732C72.3836 25.9684 78.8775 24.9604 81.8148 24.4445C85.3396 33.4947 83.601 46.7125 82.2911 52.1902H78.0042C78.9569 46.7125 75.8608 43.2591 73.3601 40.044C70.8594 36.8288 60.4994 28.9695 58.1178 27.4214C56.2125 26.183 48.8295 24.9208 45.3762 24.4445C43.59 28.4933 37.755 30.1603 33.8253 28.9695C29.8957 27.7787 29.4194 22.8964 31.3246 21.8246C33.2299 20.7529 37.9932 17.1805 39.7794 15.2752C41.5656 13.3699 46.567 12.8936 52.7592 13.1318C58.9513 13.3699 63.3573 19.6812 64.6672 21.8246C65.9771 23.9681 66.8107 25.7543 69.9068 25.8732Z" fill="url(#paint14_radial)"/>
    <mask id="mask9" style="mask-type:alpha" maskUnits="userSpaceOnUse" x="30" y="13" width="54" height="40">
        <path d="M69.9068 25.8732C72.3836 25.9684 78.8775 24.9604 81.8148 24.4445C85.3396 33.4947 83.601 46.7125 82.2911 52.1902H78.0042C78.9569 46.7125 75.8608 43.2591 73.3601 40.044C70.8594 36.8288 60.4994 28.9695 58.1178 27.4214C56.2125 26.183 48.8295 24.9208 45.3762 24.4445C43.59 28.4933 37.755 30.1603 33.8253 28.9695C29.8957 27.7787 29.4194 22.8964 31.3246 21.8246C33.2299 20.7529 37.9932 17.1805 39.7794 15.2752C41.5656 13.3699 46.567 12.8936 52.7592 13.1318C58.9513 13.3699 63.3573 19.6812 64.6672 21.8246C65.9771 23.9681 66.8107 25.7543 69.9068 25.8732Z" fill="url(#paint15_radial)"/>
    </mask>
    <g mask="url(#mask9)">
        <g filter="url(#filter14_f)">
            <path d="M69.9068 25.8732C72.3836 25.9684 78.8775 24.9604 81.8148 24.4445C85.3396 33.4947 83.601 46.7125 82.2911 52.1902H78.0042C78.9569 46.7125 75.8608 43.2591 73.3601 40.044C70.8594 36.8288 60.4994 28.9695 58.1178 27.4214C56.2125 26.183 48.8295 24.9208 45.3762 24.4445C43.59 28.4933 37.755 30.1603 33.8253 28.9695C29.8957 27.7787 29.4194 22.8964 31.3246 21.8246C33.2299 20.7529 37.9932 17.1805 39.7794 15.2752C41.5656 13.3699 46.567 12.8936 52.7592 13.1318C58.9513 13.3699 63.3573 19.6812 64.6672 21.8246C65.9771 23.9681 66.8107 25.7543 69.9068 25.8732Z" stroke="#8F4A3C" stroke-width="0.694205"/>
        </g>
    </g>
    <path d="M13.3198 53.9536C14.9402 55.979 17.6238 56.0212 18.7631 55.7891C22.0543 54.4219 24.5228 50.5357 25.3456 48.7636C25.0291 41.738 19.5859 43.1937 16.168 45.4089C12.7502 47.6242 11.2944 51.4218 13.3198 53.9536Z" fill="url(#paint16_radial)"/>
    <g opacity="0.1">
        <mask id="mask10" style="mask-type:alpha" maskUnits="userSpaceOnUse" x="12" y="43" width="14" height="13">
            <path d="M13.3198 53.9536C14.9402 55.979 17.6238 56.0212 18.7631 55.7891C22.0543 54.4219 24.5228 50.5357 25.3456 48.7636C25.0291 41.738 19.5859 43.1937 16.168 45.4089C12.7502 47.6242 11.2944 51.4218 13.3198 53.9536Z" fill="url(#paint17_radial)"/>
        </mask>
        <g mask="url(#mask10)">
            <g filter="url(#filter15_f)">
                <path d="M24.9881 50.2441C24.4784 51.1276 22.623 52.548 19.2792 51.1616C16.1735 49.8739 16.228 46.6101 16.7144 44.8177C15.6664 45.0973 13.0403 46.309 10.9199 48.9188C8.26933 52.181 11.7354 59.0112 17.5462 57.686C22.1949 56.6257 24.4444 52.2829 24.9881 50.2441Z" fill="black"/>
            </g>
        </g>
    </g>
    <mask id="mask11" style="mask-type:alpha" maskUnits="userSpaceOnUse" x="12" y="43" width="14" height="13">
        <path d="M13.3198 53.9536C14.9402 55.979 17.6238 56.0212 18.7631 55.7891C22.0543 54.4219 24.5228 50.5357 25.3456 48.7636C25.0291 41.738 19.5859 43.1937 16.168 45.4089C12.7502 47.6242 11.2944 51.4218 13.3198 53.9536Z" fill="url(#paint18_radial)"/>
    </mask>
    <g mask="url(#mask11)">
        <g filter="url(#filter16_f)">
            <path d="M13.3198 53.9536C14.9402 55.979 17.6238 56.0212 18.7631 55.7891C22.0543 54.4219 24.5228 50.5357 25.3456 48.7636C25.0291 41.738 19.5859 43.1937 16.168 45.4089C12.7502 47.6242 11.2944 51.4218 13.3198 53.9536Z" stroke="#8F4A3C" stroke-width="0.694205"/>
        </g>
    </g>
    <g filter="url(#filter17_f)">
        <path d="M23.5279 51.3359C22.8229 52.1786 20.9712 54.2246 20.1335 55.1422C23.5018 52.6674 25.0634 49.5564 25.2994 48.7588C25.0027 49.2667 24.233 50.4932 23.5279 51.3359Z" fill="#8F4A3C"/>
    </g>
    <g filter="url(#filter18_f)">
        <path d="M32.9427 56.1401C32.0102 57.1001 29.5932 59.4346 28.5012 60.4818C32.6604 57.6284 34.9628 54.1117 35.3731 53.2144C34.9515 53.7896 33.8752 55.1801 32.9427 56.1401Z" fill="#8F4A3C"/>
    </g>
    <g filter="url(#filter19_f)">
        <path d="M43.2259 60.1217C42.1689 61.3977 39.4338 64.5316 38.1984 65.939C42.87 61.8594 45.5142 57.4153 45.9935 56.318C45.5114 57.0542 44.2829 58.8457 43.2259 60.1217Z" fill="#8F4A3C"/>
    </g>
    <g filter="url(#filter20_f)">
        <ellipse cx="21.0316" cy="47.2046" rx="2.32907" ry="2.58718" transform="rotate(-1.3867 21.0316 47.2046)" fill="#FFE39C"/>
    </g>
    <g filter="url(#filter21_f)">
        <ellipse cx="31.2387" cy="49.8467" rx="2.32907" ry="2.58718" transform="rotate(-1.3867 31.2387 49.8467)" fill="#FFE39C"/>
    </g>
    <g filter="url(#filter22_f)">
        <ellipse cx="41.6644" cy="53.2425" rx="2.32907" ry="2.58718" transform="rotate(-1.3867 41.6644 53.2425)" fill="#FFE39C"/>
    </g>
    <g filter="url(#filter23_f)">
        <ellipse cx="48.0199" cy="59.3548" rx="2.32907" ry="2.58718" transform="rotate(-1.3867 48.0199 59.3548)" fill="#FFE39C"/>
    </g>
    <g filter="url(#filter24_f)">
        <ellipse cx="67.7988" cy="39.2562" rx="10.4197" ry="1.33504" transform="rotate(41.8626 67.7988 39.2562)" fill="#FFE39C"/>
    </g>
    <g filter="url(#filter25_f)">
        <ellipse cx="63.2011" cy="48.0782" rx="10.4197" ry="1.33504" transform="rotate(41.8626 63.2011 48.0782)" fill="#FFE39C"/>
    </g>
    <g filter="url(#filter26_f)">
        <ellipse cx="57.8696" cy="56.1831" rx="8.35377" ry="1.33504" transform="rotate(41.8626 57.8696 56.1831)" fill="#FFE39C"/>
    </g>
    <g filter="url(#filter27_f)">
        <ellipse cx="13.1241" cy="28.1234" rx="9.45617" ry="3.18493" fill="#FFE39C" fill-opacity="0.6"/>
    </g>
    <g filter="url(#filter28_f)">
        <ellipse cx="49.0098" cy="15.7545" rx="6.58743" ry="1.24943" transform="rotate(-1.15982 49.0098 15.7545)" fill="#FFE39C"/>
    </g>
    <g filter="url(#filter29_f)">
        <ellipse cx="35.7704" cy="21.2439" rx="2.55036" ry="1.24943" transform="rotate(-1.15982 35.7704 21.2439)" fill="#FFE39C"/>
    </g>
    <g filter="url(#filter30_f)">
        <ellipse cx="75.3266" cy="28.6338" rx="5.68791" ry="2.59798" transform="rotate(-5.99463 75.3266 28.6338)" fill="#FFE39C" fill-opacity="0.6"/>
    </g>
    <g filter="url(#filter31_f)">
        <path d="M45.3464 24.4424C44.9257 25.9633 43.1485 27.3147 42.3125 27.8002C43.7532 27.1594 45.0965 25.5698 45.5881 24.8551C49.7613 24.8551 54.7486 26.0982 56.7206 26.7197C53.3781 25.3828 47.7451 24.6444 45.3464 24.4424Z" fill="#8F4A3C"/>
    </g>
    <defs>
        <filter id="filter0_f" x="38.4346" y="33.557" width="47.2088" height="44.0206" filterUnits="userSpaceOnUse" color-interpolation-filters="sRGB">
            <feFlood flood-opacity="0" result="BackgroundImageFix"/>
            <feBlend mode="normal" in="SourceGraphic" in2="BackgroundImageFix" result="shape"/>
            <feGaussianBlur stdDeviation="2.77682" result="effect1_foregroundBlur"/>
        </filter>
        <filter id="filter1_f" x="29.2723" y="16.9463" width="54.5258" height="58.8187" filterUnits="userSpaceOnUse" color-interpolation-filters="sRGB">
            <feFlood flood-opacity="0" result="BackgroundImageFix"/>
            <feBlend mode="normal" in="SourceGraphic" in2="BackgroundImageFix" result="shape"/>
            <feGaussianBlur stdDeviation="2.08261" result="effect1_foregroundBlur"/>
        </filter>
        <filter id="filter2_f" x="-3.13789" y="12.4178" width="86.1625" height="62.1308" filterUnits="userSpaceOnUse" color-interpolation-filters="sRGB">
            <feFlood flood-opacity="0" result="BackgroundImageFix"/>
            <feBlend mode="normal" in="SourceGraphic" in2="BackgroundImageFix" result="shape"/>
            <feGaussianBlur stdDeviation="2.08261" result="effect1_foregroundBlur"/>
        </filter>
        <filter id="filter3_f" x="57.3917" y="37.6058" width="16.3533" height="17.9013" filterUnits="userSpaceOnUse" color-interpolation-filters="sRGB">
            <feFlood flood-opacity="0" result="BackgroundImageFix"/>
            <feBlend mode="normal" in="SourceGraphic" in2="BackgroundImageFix" result="shape"/>
            <feGaussianBlur stdDeviation="0.347102" result="effect1_foregroundBlur"/>
        </filter>
        <filter id="filter4_f" x="53.3527" y="47.7628" width="12.9079" height="14.1011" filterUnits="userSpaceOnUse" color-interpolation-filters="sRGB">
            <feFlood flood-opacity="0" result="BackgroundImageFix"/>
            <feBlend mode="normal" in="SourceGraphic" in2="BackgroundImageFix" result="shape"/>
            <feGaussianBlur stdDeviation="0.347102" result="effect1_foregroundBlur"/>
        </filter>
        <filter id="filter5_f" x="48.5949" y="57.0121" width="9.36888" height="9.92405" filterUnits="userSpaceOnUse" color-interpolation-filters="sRGB">
            <feFlood flood-opacity="0" result="BackgroundImageFix"/>
            <feBlend mode="normal" in="SourceGraphic" in2="BackgroundImageFix" result="shape"/>
            <feGaussianBlur stdDeviation="0.347102" result="effect1_foregroundBlur"/>
        </filter>
        <filter id="filter6_f" x="31.0429" y="55.4367" width="25.9103" height="22.0238" filterUnits="userSpaceOnUse" color-interpolation-filters="sRGB">
            <feFlood flood-opacity="0" result="BackgroundImageFix"/>
            <feBlend mode="normal" in="SourceGraphic" in2="BackgroundImageFix" result="shape"/>
            <feGaussianBlur stdDeviation="2.42972" result="effect1_foregroundBlur"/>
        </filter>
        <filter id="filter7_f" x="34.4419" y="52.1375" width="20.5536" height="21.715" filterUnits="userSpaceOnUse" color-interpolation-filters="sRGB">
            <feFlood flood-opacity="0" result="BackgroundImageFix"/>
            <feBlend mode="normal" in="SourceGraphic" in2="BackgroundImageFix" result="shape"/>
            <feGaussianBlur stdDeviation="1.38841" result="effect1_foregroundBlur"/>
        </filter>
        <filter id="filter8_f" x="20.6249" y="48.8115" width="29.715" height="27.4044" filterUnits="userSpaceOnUse" color-interpolation-filters="sRGB">
            <feFlood flood-opacity="0" result="BackgroundImageFix"/>
            <feBlend mode="normal" in="SourceGraphic" in2="BackgroundImageFix" result="shape"/>
            <feGaussianBlur stdDeviation="2.42972" result="effect1_foregroundBlur"/>
        </filter>
        <filter id="filter9_f" x="24.2896" y="45.721" width="25.3075" height="25.7441" filterUnits="userSpaceOnUse" color-interpolation-filters="sRGB">
            <feFlood flood-opacity="0" result="BackgroundImageFix"/>
            <feBlend mode="normal" in="SourceGraphic" in2="BackgroundImageFix" result="shape"/>
            <feGaussianBlur stdDeviation="1.38841" result="effect1_foregroundBlur"/>
        </filter>
        <filter id="filter10_f" x="11.289" y="44.0124" width="29.5665" height="28.1508" filterUnits="userSpaceOnUse" color-interpolation-filters="sRGB">
            <feFlood flood-opacity="0" result="BackgroundImageFix"/>
            <feBlend mode="normal" in="SourceGraphic" in2="BackgroundImageFix" result="shape"/>
            <feGaussianBlur stdDeviation="2.42972" result="effect1_foregroundBlur"/>
        </filter>
        <filter id="filter11_f" x="15.5044" y="42.7652" width="23.3935" height="22.2431" filterUnits="userSpaceOnUse" color-interpolation-filters="sRGB">
            <feFlood flood-opacity="0" result="BackgroundImageFix"/>
            <feBlend mode="normal" in="SourceGraphic" in2="BackgroundImageFix" result="shape"/>
            <feGaussianBlur stdDeviation="1.38841" result="effect1_foregroundBlur"/>
        </filter>
        <filter id="filter12_f" x="38.7885" y="21.1366" width="23.5988" height="9.97895" filterUnits="userSpaceOnUse" color-interpolation-filters="sRGB">
            <feFlood flood-opacity="0" result="BackgroundImageFix"/>
            <feBlend mode="normal" in="SourceGraphic" in2="BackgroundImageFix" result="shape"/>
            <feGaussianBlur stdDeviation="1.04131" result="effect1_foregroundBlur"/>
        </filter>
        <filter id="filter13_f" x="26.7176" y="20.2137" width="22.393" height="16.2423" filterUnits="userSpaceOnUse" color-interpolation-filters="sRGB">
            <feFlood flood-opacity="0" result="BackgroundImageFix"/>
            <feBlend mode="normal" in="SourceGraphic" in2="BackgroundImageFix" result="shape"/>
            <feGaussianBlur stdDeviation="2.08261" result="effect1_foregroundBlur"/>
        </filter>
        <filter id="filter14_f" x="25.7293" y="8.5628" width="62.6781" height="48.1398" filterUnits="userSpaceOnUse" color-interpolation-filters="sRGB">
            <feFlood flood-opacity="0" result="BackgroundImageFix"/>
            <feBlend mode="normal" in="SourceGraphic" in2="BackgroundImageFix" result="shape"/>
            <feGaussianBlur stdDeviation="2.08261" result="effect1_foregroundBlur"/>
        </filter>
        <filter id="filter15_f" x="5.8504" y="40.6524" width="23.3031" height="21.3673" filterUnits="userSpaceOnUse" color-interpolation-filters="sRGB">
            <feFlood flood-opacity="0" result="BackgroundImageFix"/>
            <feBlend mode="normal" in="SourceGraphic" in2="BackgroundImageFix" result="shape"/>
            <feGaussianBlur stdDeviation="2.08261" result="effect1_foregroundBlur"/>
        </filter>
        <filter id="filter16_f" x="9.27006" y="40.4593" width="19.2021" height="18.5497" filterUnits="userSpaceOnUse" color-interpolation-filters="sRGB">
            <feFlood flood-opacity="0" result="BackgroundImageFix"/>
            <feBlend mode="normal" in="SourceGraphic" in2="BackgroundImageFix" result="shape"/>
            <feGaussianBlur stdDeviation="1.38841" result="effect1_foregroundBlur"/>
        </filter>
        <filter id="filter17_f" x="19.7857" y="48.4117" width="5.86217" height="7.07775" filterUnits="userSpaceOnUse" color-interpolation-filters="sRGB">
            <feFlood flood-opacity="0" result="BackgroundImageFix"/>
            <feBlend mode="normal" in="SourceGraphic" in2="BackgroundImageFix" result="shape"/>
            <feGaussianBlur stdDeviation="0.173551" result="effect1_foregroundBlur"/>
        </filter>
        <filter id="filter18_f" x="28.1529" y="52.8673" width="7.5692" height="7.96178" filterUnits="userSpaceOnUse" color-interpolation-filters="sRGB">
            <feFlood flood-opacity="0" result="BackgroundImageFix"/>
            <feBlend mode="normal" in="SourceGraphic" in2="BackgroundImageFix" result="shape"/>
            <feGaussianBlur stdDeviation="0.173551" result="effect1_foregroundBlur"/>
        </filter>
        <filter id="filter19_f" x="37.8521" y="55.971" width="8.48717" height="10.3151" filterUnits="userSpaceOnUse" color-interpolation-filters="sRGB">
            <feFlood flood-opacity="0" result="BackgroundImageFix"/>
            <feBlend mode="normal" in="SourceGraphic" in2="BackgroundImageFix" result="shape"/>
            <feGaussianBlur stdDeviation="0.173551" result="effect1_foregroundBlur"/>
        </filter>
        <filter id="filter20_f" x="15.2321" y="41.1467" width="11.5983" height="12.1161" filterUnits="userSpaceOnUse" color-interpolation-filters="sRGB">
            <feFlood flood-opacity="0" result="BackgroundImageFix"/>
            <feBlend mode="normal" in="SourceGraphic" in2="BackgroundImageFix" result="shape"/>
            <feGaussianBlur stdDeviation="1.73551" result="effect1_foregroundBlur"/>
        </filter>
        <filter id="filter21_f" x="25.4391" y="43.7887" width="11.5983" height="12.1161" filterUnits="userSpaceOnUse" color-interpolation-filters="sRGB">
            <feFlood flood-opacity="0" result="BackgroundImageFix"/>
            <feBlend mode="normal" in="SourceGraphic" in2="BackgroundImageFix" result="shape"/>
            <feGaussianBlur stdDeviation="1.73551" result="effect1_foregroundBlur"/>
        </filter>
        <filter id="filter22_f" x="35.8649" y="47.1845" width="11.5983" height="12.1161" filterUnits="userSpaceOnUse" color-interpolation-filters="sRGB">
            <feFlood flood-opacity="0" result="BackgroundImageFix"/>
            <feBlend mode="normal" in="SourceGraphic" in2="BackgroundImageFix" result="shape"/>
            <feGaussianBlur stdDeviation="1.73551" result="effect1_foregroundBlur"/>
        </filter>
        <filter id="filter23_f" x="42.2204" y="53.2968" width="11.5983" height="12.1161" filterUnits="userSpaceOnUse" color-interpolation-filters="sRGB">
            <feFlood flood-opacity="0" result="BackgroundImageFix"/>
            <feBlend mode="normal" in="SourceGraphic" in2="BackgroundImageFix" result="shape"/>
            <feGaussianBlur stdDeviation="1.73551" result="effect1_foregroundBlur"/>
        </filter>
        <filter id="filter24_f" x="56.5173" y="28.7599" width="22.5631" height="20.9923" filterUnits="userSpaceOnUse" color-interpolation-filters="sRGB">
            <feFlood flood-opacity="0" result="BackgroundImageFix"/>
            <feBlend mode="normal" in="SourceGraphic" in2="BackgroundImageFix" result="shape"/>
            <feGaussianBlur stdDeviation="1.73551" result="effect1_foregroundBlur"/>
        </filter>
        <filter id="filter25_f" x="51.9196" y="37.582" width="22.5631" height="20.9923" filterUnits="userSpaceOnUse" color-interpolation-filters="sRGB">
            <feFlood flood-opacity="0" result="BackgroundImageFix"/>
            <feBlend mode="normal" in="SourceGraphic" in2="BackgroundImageFix" result="shape"/>
            <feGaussianBlur stdDeviation="1.73551" result="effect1_foregroundBlur"/>
        </filter>
        <filter id="filter26_f" x="48.111" y="47.0483" width="19.5163" height="18.2697" filterUnits="userSpaceOnUse" color-interpolation-filters="sRGB">
            <feFlood flood-opacity="0" result="BackgroundImageFix"/>
            <feBlend mode="normal" in="SourceGraphic" in2="BackgroundImageFix" result="shape"/>
            <feGaussianBlur stdDeviation="1.73551" result="effect1_foregroundBlur"/>
        </filter>
        <filter id="filter27_f" x="0.196944" y="21.4675" width="25.8561" height="13.3119" filterUnits="userSpaceOnUse" color-interpolation-filters="sRGB">
            <feFlood flood-opacity="0" result="BackgroundImageFix"/>
            <feBlend mode="normal" in="SourceGraphic" in2="BackgroundImageFix" result="shape"/>
            <feGaussianBlur stdDeviation="1.73551" result="effect1_foregroundBlur"/>
        </filter>
        <filter id="filter28_f" x="38.9509" y="11.027" width="20.1178" height="9.45499" filterUnits="userSpaceOnUse" color-interpolation-filters="sRGB">
            <feFlood flood-opacity="0" result="BackgroundImageFix"/>
            <feBlend mode="normal" in="SourceGraphic" in2="BackgroundImageFix" result="shape"/>
            <feGaussianBlur stdDeviation="1.73551" result="effect1_foregroundBlur"/>
        </filter>
        <filter id="filter29_f" x="29.7477" y="16.5226" width="12.0436" height="9.44254" filterUnits="userSpaceOnUse" color-interpolation-filters="sRGB">
            <feFlood flood-opacity="0" result="BackgroundImageFix"/>
            <feBlend mode="normal" in="SourceGraphic" in2="BackgroundImageFix" result="shape"/>
            <feGaussianBlur stdDeviation="1.73551" result="effect1_foregroundBlur"/>
        </filter>
        <filter id="filter30_f" x="66.193" y="22.5109" width="18.2663" height="12.2458" filterUnits="userSpaceOnUse" color-interpolation-filters="sRGB">
            <feFlood flood-opacity="0" result="BackgroundImageFix"/>
            <feBlend mode="normal" in="SourceGraphic" in2="BackgroundImageFix" result="shape"/>
            <feGaussianBlur stdDeviation="1.73551" result="effect1_foregroundBlur"/>
        </filter>
        <filter id="filter31_f" x="41.6183" y="23.7482" width="15.7947" height="4.74632" filterUnits="userSpaceOnUse" color-interpolation-filters="sRGB">
            <feFlood flood-opacity="0" result="BackgroundImageFix"/>
            <feBlend mode="normal" in="SourceGraphic" in2="BackgroundImageFix" result="shape"/>
            <feGaussianBlur stdDeviation="0.347102" result="effect1_foregroundBlur"/>
        </filter>
        <radialGradient id="paint0_radial" cx="0" cy="0" r="1" gradientUnits="userSpaceOnUse" gradientTransform="translate(46.5337 29.2725) rotate(100.153) scale(37.812 54.815)">
            <stop stop-color="#F4D894"/>
            <stop offset="0.473958" stop-color="#FACA56"/>
            <stop offset="0.739583" stop-color="#EFBC40"/>
            <stop offset="0.895833" stop-color="#E7B02C"/>
            <stop offset="1" stop-color="#E79A27"/>
        </radialGradient>
        <linearGradient id="paint1_linear" x1="22.7479" y1="4.19715" x2="126.165" y2="96.7037" gradientUnits="userSpaceOnUse">
            <stop stop-color="#F4D894" stop-opacity="0"/>
            <stop offset="1" stop-color="#DD44CE"/>
        </linearGradient>
        <linearGradient id="paint2_linear" x1="22.7479" y1="4.19715" x2="126.165" y2="96.7037" gradientUnits="userSpaceOnUse">
            <stop stop-color="#F4D894" stop-opacity="0"/>
            <stop offset="1" stop-color="#DD44CE"/>
        </linearGradient>
        <linearGradient id="paint3_linear" x1="22.7479" y1="4.19715" x2="130.04" y2="122.175" gradientUnits="userSpaceOnUse">
            <stop stop-color="#F4D894" stop-opacity="0"/>
            <stop offset="1" stop-color="#DD44CE"/>
        </linearGradient>
        <radialGradient id="paint4_radial" cx="0" cy="0" r="1" gradientUnits="userSpaceOnUse" gradientTransform="translate(46.5337 29.2725) rotate(100.153) scale(37.812 54.815)">
            <stop stop-color="#F4D894"/>
            <stop offset="0.473958" stop-color="#FACA56"/>
            <stop offset="0.739583" stop-color="#EFBC40"/>
            <stop offset="0.895833" stop-color="#E7B02C"/>
            <stop offset="1" stop-color="#E79A27"/>
        </radialGradient>
        <radialGradient id="paint5_radial" cx="0" cy="0" r="1" gradientUnits="userSpaceOnUse" gradientTransform="translate(44.7213 62.9949) rotate(128.764) scale(9.91833 4.94598)">
            <stop stop-color="#F4D894"/>
            <stop offset="0.473958" stop-color="#FACA56"/>
            <stop offset="0.739583" stop-color="#EFBC40"/>
            <stop offset="0.895833" stop-color="#E7B02C"/>
            <stop offset="1" stop-color="#E79A27"/>
        </radialGradient>
        <radialGradient id="paint6_radial" cx="0" cy="0" r="1" gradientUnits="userSpaceOnUse" gradientTransform="translate(44.7213 62.9949) rotate(128.764) scale(9.91833 4.94598)">
            <stop stop-color="#F4D894"/>
            <stop offset="0.473958" stop-color="#FACA56"/>
            <stop offset="0.739583" stop-color="#EFBC40"/>
            <stop offset="0.895833" stop-color="#E7B02C"/>
            <stop offset="1" stop-color="#E79A27"/>
        </radialGradient>
        <radialGradient id="paint7_radial" cx="0" cy="0" r="1" gradientUnits="userSpaceOnUse" gradientTransform="translate(44.7213 62.9949) rotate(128.764) scale(9.91833 4.94598)">
            <stop stop-color="#F4D894"/>
            <stop offset="0.473958" stop-color="#FACA56"/>
            <stop offset="0.739583" stop-color="#EFBC40"/>
            <stop offset="0.895833" stop-color="#E7B02C"/>
            <stop offset="1" stop-color="#E79A27"/>
        </radialGradient>
        <radialGradient id="paint8_radial" cx="0" cy="0" r="1" gradientUnits="userSpaceOnUse" gradientTransform="translate(36.9427 58.5929) rotate(132.965) scale(11.5145 6.89308)">
            <stop stop-color="#F4D894"/>
            <stop offset="0.473958" stop-color="#FACA56"/>
            <stop offset="0.739583" stop-color="#EFBC40"/>
            <stop offset="0.895833" stop-color="#E7B02C"/>
            <stop offset="1" stop-color="#E79A27"/>
        </radialGradient>
        <radialGradient id="paint9_radial" cx="0" cy="0" r="1" gradientUnits="userSpaceOnUse" gradientTransform="translate(36.9427 58.5929) rotate(132.965) scale(11.5145 6.89308)">
            <stop stop-color="#F4D894"/>
            <stop offset="0.473958" stop-color="#FACA56"/>
            <stop offset="0.739583" stop-color="#EFBC40"/>
            <stop offset="0.895833" stop-color="#E7B02C"/>
            <stop offset="1" stop-color="#E79A27"/>
        </radialGradient>
        <radialGradient id="paint10_radial" cx="0" cy="0" r="1" gradientUnits="userSpaceOnUse" gradientTransform="translate(36.9427 58.5929) rotate(132.965) scale(11.5145 6.89308)">
            <stop stop-color="#F4D894"/>
            <stop offset="0.473958" stop-color="#FACA56"/>
            <stop offset="0.739583" stop-color="#EFBC40"/>
            <stop offset="0.895833" stop-color="#E7B02C"/>
            <stop offset="1" stop-color="#E79A27"/>
        </radialGradient>
        <radialGradient id="paint11_radial" cx="0" cy="0" r="1" gradientUnits="userSpaceOnUse" gradientTransform="translate(27.2069 53.8868) rotate(131.884) scale(9.64366 6.37444)">
            <stop stop-color="#F4D894"/>
            <stop offset="0.473958" stop-color="#FACA56"/>
            <stop offset="0.739583" stop-color="#EFBC40"/>
            <stop offset="0.895833" stop-color="#E7B02C"/>
            <stop offset="1" stop-color="#E79A27"/>
        </radialGradient>
        <radialGradient id="paint12_radial" cx="0" cy="0" r="1" gradientUnits="userSpaceOnUse" gradientTransform="translate(27.2069 53.8868) rotate(131.884) scale(9.64366 6.37444)">
            <stop stop-color="#F4D894"/>
            <stop offset="0.473958" stop-color="#FACA56"/>
            <stop offset="0.739583" stop-color="#EFBC40"/>
            <stop offset="0.895833" stop-color="#E7B02C"/>
            <stop offset="1" stop-color="#E79A27"/>
        </radialGradient>
        <radialGradient id="paint13_radial" cx="0" cy="0" r="1" gradientUnits="userSpaceOnUse" gradientTransform="translate(27.2069 53.8868) rotate(131.884) scale(9.64366 6.37444)">
            <stop stop-color="#F4D894"/>
            <stop offset="0.473958" stop-color="#FACA56"/>
            <stop offset="0.739583" stop-color="#EFBC40"/>
            <stop offset="0.895833" stop-color="#E7B02C"/>
            <stop offset="1" stop-color="#E79A27"/>
        </radialGradient>
        <radialGradient id="paint14_radial" cx="0" cy="0" r="1" gradientUnits="userSpaceOnUse" gradientTransform="translate(45.9888 14.6077) rotate(112.405) scale(27.8264 38.1689)">
            <stop stop-color="#F4D894"/>
            <stop offset="0.473958" stop-color="#FACA56"/>
            <stop offset="0.739583" stop-color="#EFBC40"/>
            <stop offset="0.895833" stop-color="#E7B02C"/>
            <stop offset="1" stop-color="#E79A27"/>
        </radialGradient>
        <radialGradient id="paint15_radial" cx="0" cy="0" r="1" gradientUnits="userSpaceOnUse" gradientTransform="translate(45.9888 14.6077) rotate(112.405) scale(27.8264 38.1689)">
            <stop stop-color="#F4D894"/>
            <stop offset="0.473958" stop-color="#FACA56"/>
            <stop offset="0.739583" stop-color="#EFBC40"/>
            <stop offset="0.895833" stop-color="#E7B02C"/>
            <stop offset="1" stop-color="#E79A27"/>
        </radialGradient>
        <radialGradient id="paint16_radial" cx="0" cy="0" r="1" gradientUnits="userSpaceOnUse" gradientTransform="translate(18.87 49.7342) rotate(129.888) scale(6.55151 6.17213)">
            <stop stop-color="#F4D894"/>
            <stop offset="0.473958" stop-color="#FACA56"/>
            <stop offset="0.739583" stop-color="#EFBC40"/>
            <stop offset="0.895833" stop-color="#E7B02C"/>
            <stop offset="1" stop-color="#E79A27"/>
        </radialGradient>
        <radialGradient id="paint17_radial" cx="0" cy="0" r="1" gradientUnits="userSpaceOnUse" gradientTransform="translate(18.87 49.7342) rotate(129.888) scale(6.55151 6.17213)">
            <stop stop-color="#F4D894"/>
            <stop offset="0.473958" stop-color="#FACA56"/>
            <stop offset="0.739583" stop-color="#EFBC40"/>
            <stop offset="0.895833" stop-color="#E7B02C"/>
            <stop offset="1" stop-color="#E79A27"/>
        </radialGradient>
        <radialGradient id="paint18_radial" cx="0" cy="0" r="1" gradientUnits="userSpaceOnUse" gradientTransform="translate(18.87 49.7342) rotate(129.888) scale(6.55151 6.17213)">
            <stop stop-color="#F4D894"/>
            <stop offset="0.473958" stop-color="#FACA56"/>
            <stop offset="0.739583" stop-color="#EFBC40"/>
            <stop offset="0.895833" stop-color="#E7B02C"/>
            <stop offset="1" stop-color="#E79A27"/>
        </radialGradient>
    </defs>
</svg>
