<svg width="85" height="84" viewBox="0 0 85 84" fill="none" xmlns="http://www.w3.org/2000/svg">
    <path d="M42.7118 83.6313C65.8823 83.6313 84.6658 64.9109 84.6658 41.8181C84.6658 18.7253 65.8823 0.00488281 42.7118 0.00488281C19.5412 0.00488281 0.757812 18.7253 0.757812 41.8181C0.757812 64.9109 19.5412 83.6313 42.7118 83.6313Z" fill="url(#paint0_radial)"/>
    <path d="M42.7118 83.6313C65.8823 83.6313 84.6658 64.9109 84.6658 41.8181C84.6658 18.7253 65.8823 0.00488281 42.7118 0.00488281C19.5412 0.00488281 0.757812 18.7253 0.757812 41.8181C0.757812 64.9109 19.5412 83.6313 42.7118 83.6313Z" fill="url(#paint1_linear)"/>
    <g filter="url(#filter0_i)">
        <path d="M42.7118 83.6313C65.8823 83.6313 84.6658 64.9109 84.6658 41.8181C84.6658 18.7253 65.8823 0.00488281 42.7118 0.00488281C19.5412 0.00488281 0.757812 18.7253 0.757812 41.8181C0.757812 64.9109 19.5412 83.6313 42.7118 83.6313Z" fill="#FFFEFE" fill-opacity="0.01"/>
    </g>
    <path d="M42.7118 83.6313C65.8823 83.6313 84.6658 64.9109 84.6658 41.8181C84.6658 18.7253 65.8823 0.00488281 42.7118 0.00488281C19.5412 0.00488281 0.757812 18.7253 0.757812 41.8181C0.757812 64.9109 19.5412 83.6313 42.7118 83.6313Z" fill="url(#paint2_radial)"/>
    <g filter="url(#filter1_di)">
        <circle cx="27.473" cy="38.2435" r="11.2386" fill="white"/>
    </g>
    <circle cx="28.1201" cy="41.146" r="3.72556" fill="#1C1D21"/>
    <g filter="url(#filter2_di)">
        <circle cx="57.9509" cy="38.2449" r="11.24" fill="white"/>
    </g>
    <circle cx="57.4365" cy="40.7304" r="3.72556" fill="#1C1D21"/>
    <g filter="url(#filter3_di)">
        <path fill-rule="evenodd" clip-rule="evenodd" d="M42.7116 66.6834C40.8232 66.6834 38.3426 66.1769 35.3253 64.1492C33.3968 62.8532 33.2511 62.0973 33.5053 61.6141C33.7483 61.1522 34.2318 61.082 35.3253 61.6145C37.9311 62.8836 40.6393 63.2989 42.7116 63.2989V66.6834ZM42.7116 66.6834C45.0315 66.6834 47.0806 66.1769 50.098 64.1492C52.0264 62.8532 52.1722 62.0973 51.9179 61.6141C51.675 61.1522 51.1914 61.082 50.098 61.6145C47.4921 62.8836 44.7839 63.2989 42.7116 63.2989V66.6834Z" fill="url(#paint3_linear)"/>
    </g>
    <path fill-rule="evenodd" clip-rule="evenodd" d="M42.7092 68.4189H42.8708H43.693C45.367 68.4189 46.864 67.3765 47.4447 65.8064L48.7854 62.1809C46.6032 63.0109 44.4355 63.2991 42.7092 63.2991V68.4189ZM42.7092 68.4189V63.2991C40.9828 63.2991 38.815 63.0109 36.6328 62.1809L37.9736 65.8064C38.5543 67.3765 40.0512 68.4189 41.7253 68.4189H42.5475H42.7092Z" fill="white"/>
    <path fill-rule="evenodd" clip-rule="evenodd" d="M42.7092 68.4189H42.8708H43.693C45.367 68.4189 46.864 67.3765 47.4447 65.8064L48.7854 62.1809C46.6032 63.0109 44.4355 63.2991 42.7092 63.2991V68.4189ZM42.7092 68.4189V63.2991C40.9828 63.2991 38.815 63.0109 36.6328 62.1809L37.9736 65.8064C38.5543 67.3765 40.0512 68.4189 41.7253 68.4189H42.5475H42.7092Z" fill="url(#paint4_radial)"/>
    <g opacity="0.2" filter="url(#filter4_f)">
        <path fill-rule="evenodd" clip-rule="evenodd" d="M3.66406 30.6899C6.54611 29.6874 15.0419 27.8078 25.9687 28.309C32.8856 28.309 38.0399 31.1492 39.7525 32.5693H42.7598V38.0828C41.9537 38.0039 40.2827 38.3082 40.047 40.1563C39.7525 42.4664 38.4693 48.5132 35.6256 52.026C33.0485 55.2095 28.4107 55.3019 25.8207 55.3534H25.8207H25.8206C25.5527 55.3588 25.3067 55.3637 25.0872 55.3715L25.0698 55.3721C22.701 55.4568 13.7042 55.7782 10.3669 51.106C10.1199 50.8082 9.48631 49.6108 8.92815 47.2037C8.73636 46.3766 8.54786 45.3683 8.35088 44.3146C7.83129 41.5351 7.2527 38.44 6.39897 37.523C5.45706 36.5114 4.18324 35.8805 3.66406 35.6916V30.6899ZM81.8556 30.6899C78.9735 29.6874 70.4778 27.8078 59.551 28.309C52.634 28.309 47.4797 31.1492 45.7672 32.5693H42.7598V38.0828C43.5659 38.0039 45.237 38.3082 45.4726 40.1563C45.7672 42.4664 47.0504 48.5132 49.8941 52.026C52.4712 55.2095 57.109 55.3019 59.6989 55.3534H59.699C59.9669 55.3588 60.2129 55.3637 60.4324 55.3715L60.4498 55.3721C62.8187 55.4568 71.8154 55.7782 75.1527 51.106C75.3997 50.8082 76.0333 49.6108 76.5915 47.2037C76.7833 46.3766 76.9718 45.3683 77.1688 44.3146C77.6884 41.5351 78.267 38.44 79.1207 37.523C80.0626 36.5114 81.3364 35.8805 81.8556 35.6916V30.6899ZM11.5019 32.8242C10.0992 34.596 10.227 38.0803 10.3081 40.2918L10.3081 40.2919C10.3186 40.5795 10.3284 40.8456 10.3339 41.0836C10.8175 52.8518 17.9207 52.9389 23.4421 53.0065L23.4432 53.0065C23.6363 53.0089 23.8274 53.0112 24.0162 53.0141C29.606 53.0975 33.5271 52.0129 34.9454 48.8426C36.3637 45.6723 37.6152 39.7489 37.2814 36.1614C36.9477 32.574 31.1911 30.822 24.6837 30.6551C18.1762 30.4883 13.087 30.8219 11.5019 32.8242ZM75.1832 41.0836C75.1887 40.8456 75.1985 40.5795 75.209 40.2919C75.2901 38.0804 75.4179 34.596 74.0152 32.8242C72.43 30.8219 67.3409 30.4883 60.8334 30.6551C54.326 30.822 48.5694 32.574 48.2356 36.1614C47.9019 39.7489 49.1534 45.6723 50.5717 48.8426C51.9899 52.0129 55.9111 53.0975 61.5008 53.0141C61.6901 53.0112 61.8816 53.0089 62.075 53.0065C67.5964 52.9389 74.6996 52.8518 75.1832 41.0836Z" fill="#1C1D21"/>
    </g>
    <path fill-rule="evenodd" clip-rule="evenodd" d="M3.66406 28.6899C6.54611 27.6874 15.0419 25.8078 25.9687 26.309C32.8856 26.309 38.0399 29.1492 39.7525 30.5693H42.7598V36.0828C41.9537 36.0039 40.2827 36.3082 40.047 38.1563C39.7525 40.4664 38.4693 46.5132 35.6256 50.026C33.0485 53.2095 28.4107 53.3019 25.8207 53.3534H25.8207H25.8206C25.5527 53.3588 25.3067 53.3637 25.0872 53.3715L25.0698 53.3721C22.701 53.4568 13.7042 53.7782 10.3669 49.106C10.1199 48.8082 9.48631 47.6108 8.92815 45.2037C8.73636 44.3766 8.54786 43.3683 8.35088 42.3146C7.83129 39.5351 7.2527 36.44 6.39897 35.523C5.45706 34.5114 4.18324 33.8805 3.66406 33.6916V28.6899ZM81.8556 28.6899C78.9735 27.6874 70.4778 25.8078 59.551 26.309C52.634 26.309 47.4797 29.1492 45.7672 30.5693H42.7598V36.0828C43.5659 36.0039 45.237 36.3082 45.4726 38.1563C45.7672 40.4664 47.0504 46.5132 49.8941 50.026C52.4712 53.2095 57.109 53.3019 59.6989 53.3534H59.699C59.9669 53.3588 60.2129 53.3637 60.4324 53.3715L60.4498 53.3721C62.8187 53.4568 71.8154 53.7782 75.1527 49.106C75.3997 48.8082 76.0333 47.6108 76.5915 45.2037C76.7833 44.3766 76.9718 43.3683 77.1688 42.3146C77.6884 39.5351 78.267 36.44 79.1207 35.523C80.0626 34.5114 81.3364 33.8805 81.8556 33.6916V28.6899ZM11.5019 30.8242C10.0992 32.596 10.227 36.0803 10.3081 38.2918L10.3081 38.2919C10.3186 38.5795 10.3284 38.8456 10.3339 39.0836C10.8175 50.8518 17.9207 50.9389 23.4421 51.0065L23.4432 51.0065C23.6363 51.0089 23.8274 51.0112 24.0162 51.0141C29.606 51.0975 33.5271 50.0129 34.9454 46.8426C36.3637 43.6723 37.6152 37.7489 37.2814 34.1614C36.9477 30.574 31.1911 28.822 24.6837 28.6551C18.1762 28.4883 13.087 28.8219 11.5019 30.8242ZM75.1832 39.0836C75.1887 38.8456 75.1985 38.5795 75.209 38.2919C75.2901 36.0804 75.4179 32.596 74.0152 30.8242C72.43 28.8219 67.3409 28.4883 60.8334 28.6551C54.326 28.822 48.5694 30.574 48.2356 34.1614C47.9019 37.7489 49.1534 43.6723 50.5717 46.8426C51.9899 50.0129 55.9111 51.0975 61.5008 51.0141C61.6901 51.0112 61.8816 51.0089 62.075 51.0065C67.5964 50.9389 74.6996 50.8518 75.1832 39.0836Z" fill="black"/>
    <defs>
        <filter id="filter0_i" x="0.757812" y="0.00488281" width="83.9062" height="83.6265" filterUnits="userSpaceOnUse" color-interpolation-filters="sRGB">
            <feFlood flood-opacity="0" result="BackgroundImageFix"/>
            <feBlend mode="normal" in="SourceGraphic" in2="BackgroundImageFix" result="shape"/>
            <feColorMatrix in="SourceAlpha" type="matrix" values="0 0 0 0 0 0 0 0 0 0 0 0 0 0 0 0 0 0 127 0" result="hardAlpha"/>
            <feOffset/>
            <feGaussianBlur stdDeviation="8"/>
            <feComposite in2="hardAlpha" operator="arithmetic" k2="-1" k3="1"/>
            <feColorMatrix type="matrix" values="0 0 0 0 0 0 0 0 0 0 0 0 0 0 0 0 0 0 0.16 0"/>
            <feBlend mode="normal" in2="shape" result="effect1_innerShadow"/>
        </filter>
        <filter id="filter1_di" x="15.9501" y="27.0049" width="23.045" height="23.1592" filterUnits="userSpaceOnUse" color-interpolation-filters="sRGB">
            <feFlood flood-opacity="0" result="BackgroundImageFix"/>
            <feColorMatrix in="SourceAlpha" type="matrix" values="0 0 0 0 0 0 0 0 0 0 0 0 0 0 0 0 0 0 127 0" result="hardAlpha"/>
            <feOffset dy="0.397931"/>
            <feGaussianBlur stdDeviation="0.142118"/>
            <feColorMatrix type="matrix" values="0 0 0 0 1 0 0 0 0 0.901587 0 0 0 0 0.666667 0 0 0 1 0"/>
            <feBlend mode="normal" in2="BackgroundImageFix" result="effect1_dropShadow"/>
            <feBlend mode="normal" in="SourceGraphic" in2="effect1_dropShadow" result="shape"/>
            <feColorMatrix in="SourceAlpha" type="matrix" values="0 0 0 0 0 0 0 0 0 0 0 0 0 0 0 0 0 0 127 0" result="hardAlpha"/>
            <feOffset dx="0.397931" dy="0.397931"/>
            <feGaussianBlur stdDeviation="0.142118"/>
            <feComposite in2="hardAlpha" operator="arithmetic" k2="-1" k3="1"/>
            <feColorMatrix type="matrix" values="0 0 0 0 0.770833 0 0 0 0 0.590228 0 0 0 0 0.260156 0 0 0 1 0"/>
            <feBlend mode="normal" in2="shape" result="effect2_innerShadow"/>
        </filter>
        <filter id="filter2_di" x="46.4095" y="27.0049" width="23.0833" height="23.2033" filterUnits="userSpaceOnUse" color-interpolation-filters="sRGB">
            <feFlood flood-opacity="0" result="BackgroundImageFix"/>
            <feColorMatrix in="SourceAlpha" type="matrix" values="0 0 0 0 0 0 0 0 0 0 0 0 0 0 0 0 0 0 127 0" result="hardAlpha"/>
            <feOffset dy="0.421958"/>
            <feGaussianBlur stdDeviation="0.150699"/>
            <feColorMatrix type="matrix" values="0 0 0 0 1 0 0 0 0 0.901587 0 0 0 0 0.666667 0 0 0 1 0"/>
            <feBlend mode="normal" in2="BackgroundImageFix" result="effect1_dropShadow"/>
            <feBlend mode="normal" in="SourceGraphic" in2="effect1_dropShadow" result="shape"/>
            <feColorMatrix in="SourceAlpha" type="matrix" values="0 0 0 0 0 0 0 0 0 0 0 0 0 0 0 0 0 0 127 0" result="hardAlpha"/>
            <feOffset dx="-0.421958" dy="0.421958"/>
            <feGaussianBlur stdDeviation="0.150699"/>
            <feComposite in2="hardAlpha" operator="arithmetic" k2="-1" k3="1"/>
            <feColorMatrix type="matrix" values="0 0 0 0 0.770833 0 0 0 0 0.590228 0 0 0 0 0.260156 0 0 0 1 0"/>
            <feBlend mode="normal" in2="shape" result="effect2_innerShadow"/>
        </filter>
        <filter id="filter3_di" x="33.1602" y="61.241" width="19.1016" height="6.19238" filterUnits="userSpaceOnUse" color-interpolation-filters="sRGB">
            <feFlood flood-opacity="0" result="BackgroundImageFix"/>
            <feColorMatrix in="SourceAlpha" type="matrix" values="0 0 0 0 0 0 0 0 0 0 0 0 0 0 0 0 0 0 127 0" result="hardAlpha"/>
            <feOffset dy="0.5"/>
            <feGaussianBlur stdDeviation="0.125"/>
            <feColorMatrix type="matrix" values="0 0 0 0 1 0 0 0 0 0.905637 0 0 0 0 0.679167 0 0 0 1 0"/>
            <feBlend mode="normal" in2="BackgroundImageFix" result="effect1_dropShadow"/>
            <feBlend mode="normal" in="SourceGraphic" in2="effect1_dropShadow" result="shape"/>
            <feColorMatrix in="SourceAlpha" type="matrix" values="0 0 0 0 0 0 0 0 0 0 0 0 0 0 0 0 0 0 127 0" result="hardAlpha"/>
            <feOffset dx="0.35" dy="0.35"/>
            <feGaussianBlur stdDeviation="0.125"/>
            <feComposite in2="hardAlpha" operator="arithmetic" k2="-1" k3="1"/>
            <feColorMatrix type="matrix" values="0 0 0 0 0 0 0 0 0 0 0 0 0 0 0 0 0 0 1 0"/>
            <feBlend mode="normal" in2="shape" result="effect2_innerShadow"/>
        </filter>
        <filter id="filter4_f" x="2.66406" y="27.2256" width="80.1914" height="29.1848" filterUnits="userSpaceOnUse" color-interpolation-filters="sRGB">
            <feFlood flood-opacity="0" result="BackgroundImageFix"/>
            <feBlend mode="normal" in="SourceGraphic" in2="BackgroundImageFix" result="shape"/>
            <feGaussianBlur stdDeviation="0.5" result="effect1_foregroundBlur"/>
        </filter>
        <radialGradient id="paint0_radial" cx="0" cy="0" r="1" gradientUnits="userSpaceOnUse" gradientTransform="translate(42.7118 41.8181) scale(41.954 41.8132)">
            <stop stop-color="#F4D894"/>
            <stop offset="0.57" stop-color="#FACA56"/>
            <stop offset="0.75" stop-color="#EFBC40"/>
            <stop offset="0.9" stop-color="#E7B02C"/>
            <stop offset="1" stop-color="#E79A27"/>
        </radialGradient>
        <linearGradient id="paint1_linear" x1="54.9561" y1="50.0049" x2="106.956" y2="73.5049" gradientUnits="userSpaceOnUse">
            <stop stop-color="#DD44CE" stop-opacity="0"/>
            <stop offset="1" stop-color="#DD44CE"/>
        </linearGradient>
        <radialGradient id="paint2_radial" cx="0" cy="0" r="1" gradientUnits="userSpaceOnUse" gradientTransform="translate(80.9561 62.5049) rotate(-141.752) scale(82.3824 245.238)">
            <stop stop-color="#D6A532" stop-opacity="0"/>
            <stop offset="0.347203" stop-color="#D6A532" stop-opacity="0"/>
            <stop offset="1" stop-color="#FFFDF9"/>
        </radialGradient>
        <linearGradient id="paint3_linear" x1="42.7116" y1="61.241" x2="42.7116" y2="66.6834" gradientUnits="userSpaceOnUse">
            <stop stop-color="#130502"/>
            <stop offset="1" stop-color="#8F4A3C"/>
        </linearGradient>
        <radialGradient id="paint4_radial" cx="0" cy="0" r="1" gradientUnits="userSpaceOnUse" gradientTransform="translate(42.7091 68.4189) rotate(-90) scale(17.819 96.1719)">
            <stop stop-color="white"/>
            <stop offset="1" stop-opacity="0.78"/>
        </radialGradient>
    </defs>
</svg>
